{"glyphs":{"0":{"ha":658,"x_min":56,"x_max":730,"o":"m 336 235 q 431 269 388 235 q 505 355 473 304 q 568 587 568 467 q 545 689 568 647 q 477 731 522 731 q 394 692 431 731 q 328 597 357 654 q 264 351 264 467 q 336 235 264 235 m 423 31 q 297 1 363 1 q 185 25 231 1 q 111 90 140 49 q 56 304 56 170 q 121 624 56 457 q 293 902 187 793 q 528 1021 407 1021 q 681 922 627 1021 q 730 684 730 831 q 616 231 730 442 q 423 31 540 91 z "},"1":{"ha":445,"x_min":102,"x_max":555,"o":"m 102 688 l 136 930 q 339 968 244 954 q 555 1001 434 982 q 412 301 477 685 q 373 60 393 183 q 126 5 283 33 q 173 219 155 130 q 203 367 191 308 q 228 486 216 426 q 270 712 243 563 q 177 700 233 709 q 102 688 121 690 z "},"2":{"ha":648,"x_min":1,"x_max":747,"o":"m 125 623 q 122 667 122 644 q 236 922 122 822 q 480 1012 340 1012 q 666 945 594 1012 q 747 735 747 869 q 270 233 747 488 q 448 241 349 233 q 621 254 548 248 l 598 53 q 465 43 545 49 q 220 28 317 35 q 1 12 123 20 l 24 187 q 271 464 37 288 q 460 618 418 574 q 503 698 503 663 q 487 755 503 732 q 447 777 471 777 q 406 767 423 777 q 380 741 389 757 q 362 666 362 711 l 362 651 q 363 646 362 647 q 125 623 362 646 z "},"3":{"ha":636,"x_min":14,"x_max":719,"o":"m 270 255 q 283 216 270 228 q 317 203 297 203 q 357 212 336 203 q 396 236 378 221 q 439 309 439 271 q 407 375 439 347 q 311 403 374 403 q 194 395 247 403 q 106 385 141 388 l 130 590 q 380 766 277 684 l 156 762 l 172 1001 q 376 1010 298 1006 q 500 1015 453 1013 q 590 1020 548 1017 q 719 1023 661 1023 l 686 727 l 408 581 q 654 429 606 545 q 667 342 667 393 q 632 225 667 292 q 538 105 597 159 q 402 18 479 52 q 260 -16 326 -16 q 154 -5 195 -16 q 81 28 113 5 q 14 171 14 79 q 26 241 14 202 l 270 255 z "},"4":{"ha":637,"x_min":31,"x_max":699,"o":"m 31 327 q 250 989 212 880 q 472 1004 362 989 q 292 479 393 807 q 285 446 289 461 l 384 446 q 389 477 385 456 q 399 528 393 499 q 410 591 404 557 q 457 840 427 689 q 694 868 571 857 q 687 821 693 854 q 673 746 681 788 q 658 657 666 704 q 642 568 650 610 q 628 493 633 526 q 620 446 623 460 l 699 446 l 642 224 l 571 224 l 559 42 l 302 -3 l 331 220 l 92 201 l 31 327 z "},"5":{"ha":625,"x_min":61,"x_max":716,"o":"m 61 232 q 68 357 61 279 l 282 340 q 275 300 275 320 q 292 267 275 279 q 328 254 308 254 q 368 262 349 254 q 401 286 387 270 q 438 387 438 324 q 418 442 438 426 q 290 472 376 472 q 96 448 239 472 q 187 993 127 666 l 716 1013 l 689 787 q 368 773 540 781 q 361 724 365 754 l 354 656 q 663 526 605 656 q 681 437 681 486 q 664 338 681 389 q 618 237 647 286 q 551 143 590 187 q 469 65 513 99 q 286 -7 373 -7 q 121 62 182 -7 q 61 232 61 130 z "},"6":{"ha":663,"x_min":72,"x_max":739,"o":"m 548 694 q 498 793 548 793 q 422 719 465 793 q 350 532 376 642 q 467 549 411 549 q 566 530 522 549 q 639 477 609 510 q 699 311 699 410 q 616 103 699 190 q 362 7 521 7 q 159 92 237 7 q 72 354 72 187 q 117 648 72 521 q 231 859 163 774 q 380 984 300 943 q 522 1025 461 1025 q 622 1006 583 1025 q 686 954 661 986 q 739 785 739 890 l 548 694 m 517 327 q 493 366 517 349 q 429 382 469 382 q 320 368 368 382 q 319 351 319 359 q 319 335 319 343 q 339 243 319 270 q 387 216 359 216 q 479 250 439 216 q 517 327 517 283 z "},"7":{"ha":471,"x_min":41,"x_max":642,"o":"m 642 1028 l 289 35 l 41 12 l 316 772 l 111 742 l 155 986 l 642 1028 z "},"8":{"ha":719,"x_min":27,"x_max":817,"o":"m 250 552 q 164 712 164 623 q 201 831 164 773 q 296 933 237 888 q 431 1006 355 978 q 574 1034 506 1034 q 686 1016 642 1034 q 760 968 730 998 q 817 822 817 911 q 720 616 817 703 q 648 571 689 589 q 741 351 741 473 q 707 214 741 279 q 616 98 674 148 q 315 -15 490 -15 q 49 109 110 -15 q 27 207 27 153 q 39 311 27 260 q 79 408 52 362 q 250 552 140 513 m 552 656 q 562 665 552 656 q 585 697 572 674 q 598 739 598 720 q 589 771 598 758 q 567 792 581 784 q 505 807 540 807 q 448 797 471 807 q 411 770 426 787 q 382 700 382 739 q 402 637 382 661 q 452 613 422 613 q 507 625 481 613 q 552 656 532 637 m 532 334 q 532 366 532 334 q 502 426 532 397 q 435 454 472 454 q 363 439 399 454 q 297 400 327 425 q 229 285 229 345 q 257 223 229 250 q 344 197 285 197 q 437 208 403 197 q 494 239 472 220 q 532 334 532 271 z "},"9":{"ha":680,"x_min":98,"x_max":755,"o":"m 483 473 q 359 435 420 435 q 254 454 298 435 q 174 509 209 473 q 98 708 98 587 q 201 947 98 854 q 426 1032 296 1032 q 652 941 562 1032 q 755 654 755 836 q 708 394 755 513 q 583 190 661 275 q 407 57 506 104 q 203 9 308 9 l 224 240 q 388 303 317 240 q 483 473 458 366 m 324 733 q 324 711 324 733 q 355 668 324 689 q 420 647 385 647 q 485 667 456 647 q 514 723 514 686 q 491 809 514 788 q 443 830 468 830 q 397 823 418 830 q 361 804 377 817 q 324 733 324 777 z "},"\t":{"ha":0,"x_min":0,"x_max":0,"o":""},"\n":{"ha":0,"x_min":0,"x_max":0,"o":""},"\r":{"ha":0,"x_min":0,"x_max":0,"o":""},"\u0010":{"ha":0,"x_min":0,"x_max":0,"o":""},"\u0011":{"ha":0,"x_min":0,"x_max":0,"o":""},"\u0012":{"ha":0,"x_min":0,"x_max":0,"o":""},"\u0013":{"ha":0,"x_min":0,"x_max":0,"o":""},"\u0014":{"ha":0,"x_min":0,"x_max":0,"o":""},"\u001e":{"ha":0,"x_min":0,"x_max":0,"o":""},"\u001f":{"ha":0,"x_min":0,"x_max":0,"o":""}," ":{"ha":271,"x_min":0,"x_max":0,"o":""},"!":{"ha":365,"x_min":-5,"x_max":540,"o":"m 540 1038 q 404 686 465 863 q 281 330 342 509 q 200 327 240 330 q 119 321 160 324 q 203 661 163 491 q 289 1001 244 830 q 349 1010 315 1005 q 418 1020 384 1015 q 486 1029 453 1025 q 540 1038 518 1034 m 123 -33 q 64 -21 87 -33 q 26 8 41 -9 q -5 99 -5 47 q 72 224 -5 187 q 133 236 98 236 q 254 198 214 236 q 294 111 294 160 q 250 12 294 53 q 123 -33 199 -33 z "},"\"":{"ha":585,"x_min":100,"x_max":792,"o":"m 468 1088 q 296 637 387 899 l 100 612 q 142 766 125 704 q 170 867 159 827 q 190 947 180 907 q 225 1084 210 1019 q 250 1082 237 1082 l 271 1082 q 368 1085 323 1082 q 468 1088 414 1088 m 792 1095 q 608 639 730 925 l 396 625 q 556 1073 515 939 q 697 1083 637 1076 q 792 1095 757 1090 z "},"#":{"ha":869,"x_min":61,"x_max":958,"o":"m 85 420 l 191 426 q 197 454 194 437 q 203 488 199 471 q 213 553 209 524 l 118 553 q 122 601 119 568 q 137 747 127 650 l 247 754 q 273 890 260 819 q 290 987 285 962 q 332 991 307 989 q 388 996 358 993 q 513 1005 476 1004 q 486 890 502 967 q 460 760 471 812 l 612 768 q 670 1008 646 925 q 883 1029 736 1012 q 864 963 875 1005 q 842 878 853 921 q 818 783 830 834 l 958 788 q 913 571 929 680 l 768 563 q 755 503 760 525 q 743 437 751 472 l 895 446 q 860 220 863 244 l 830 221 l 761 220 l 708 218 q 692 123 699 171 q 675 28 685 76 q 452 33 562 33 q 476 124 464 79 q 499 217 488 170 l 347 208 q 308 15 328 95 q 81 -7 174 8 q 141 194 114 94 q 101 193 126 194 q 61 191 76 191 l 85 420 m 570 562 l 423 553 l 395 426 l 536 434 q 555 494 544 434 q 570 562 567 553 z "},"$":{"ha":614,"x_min":28,"x_max":712,"o":"m 197 -100 q 228 27 213 -16 q 28 151 117 39 l 129 353 q 179 286 148 315 q 268 236 232 236 q 333 259 304 236 q 362 339 362 282 q 301 439 362 378 q 244 494 275 465 q 187 553 213 522 q 126 693 126 627 q 197 846 126 774 q 358 952 258 910 q 399 1107 373 1023 l 589 1128 l 533 989 q 699 895 661 985 q 712 831 712 863 q 709 781 712 799 q 704 742 707 762 l 505 697 l 510 728 q 494 789 510 770 q 460 807 477 807 q 427 801 442 807 q 399 784 412 795 q 370 734 370 762 q 389 686 370 705 q 436 645 408 666 q 496 599 464 624 q 556 540 529 574 q 623 358 623 463 q 553 163 623 247 q 384 47 487 81 q 370 -84 370 -52 l 197 -100 z "},"%":{"ha":1109,"x_min":114,"x_max":1139,"o":"m 789 568 q 986 669 884 669 q 1103 605 1061 669 q 1139 465 1139 548 q 1118 306 1139 381 q 1057 169 1097 231 q 960 67 1017 107 q 842 27 902 27 q 747 43 781 27 q 692 84 713 58 q 650 224 650 136 q 703 438 650 330 l 382 -41 l 152 14 q 323 251 191 57 q 515 534 454 445 q 633 708 575 623 q 738 864 690 793 q 856 1050 822 993 q 943 1031 902 1039 q 1084 1005 1054 1009 q 789 568 979 853 m 521 564 q 501 533 521 564 q 424 462 481 502 q 306 422 366 422 q 212 437 245 422 q 156 480 178 453 q 114 610 114 530 q 140 768 114 689 q 213 912 167 846 q 320 1021 259 978 q 450 1063 381 1063 q 566 998 524 1063 q 602 859 602 943 q 581 701 602 776 q 521 564 560 625 m 817 262 q 867 197 817 197 q 966 254 924 197 q 1004 350 1004 304 q 939 444 1004 444 q 853 380 891 444 q 817 262 817 319 m 281 656 q 331 591 281 591 q 431 648 388 591 q 468 745 468 699 q 403 838 468 838 q 317 774 355 838 q 281 656 281 713 z "},"&":{"ha":743,"x_min":27,"x_max":840,"o":"m 248 256 q 275 185 248 213 q 351 157 302 157 q 429 191 399 157 q 475 271 458 224 q 509 461 500 339 q 308 389 376 450 q 248 256 248 335 m 840 481 q 730 467 745 467 q 502 19 730 122 q 326 -18 420 -18 q 178 2 231 -18 q 92 54 125 22 q 27 224 27 119 q 94 429 27 331 q 270 560 161 529 q 174 648 206 591 q 157 730 157 677 q 188 843 157 784 q 270 944 218 902 q 529 1031 378 1031 q 649 1001 594 1031 q 735 918 704 971 l 621 791 q 600 810 610 800 q 574 827 589 821 q 496 845 540 845 q 432 835 453 845 q 397 807 411 825 q 370 735 370 772 q 378 676 370 699 q 399 635 385 654 q 487 595 430 595 l 502 595 q 518 598 510 595 q 524 652 518 620 q 626 655 579 652 q 727 661 673 658 q 724 640 724 654 l 724 605 q 823 624 742 605 l 840 481 z "},"'":{"ha":281,"x_min":109,"x_max":472,"o":"m 216 1081 q 277 1077 240 1077 l 323 1077 q 472 1096 373 1077 l 336 663 l 109 640 q 216 1081 167 868 z "},"(":{"ha":464,"x_min":60,"x_max":666,"o":"m 666 1053 q 288 359 288 734 q 358 121 288 239 q 495 -24 420 15 l 313 -190 q 136 0 203 -134 q 60 349 60 149 q 304 1029 60 723 q 490 1218 384 1131 l 666 1053 z "},")":{"ha":460,"x_min":-79,"x_max":544,"o":"m 351 1218 q 544 692 544 1001 q 496 382 544 528 q 376 121 449 237 q 215 -75 302 5 q 47 -190 127 -156 l -79 3 q 193 277 92 79 q 286 667 286 461 q 201 985 286 861 q 133 1055 172 1027 l 351 1218 z "},"*":{"ha":587,"x_min":106,"x_max":651,"o":"m 260 311 l 106 380 l 237 532 l 106 524 l 125 689 l 274 674 l 183 840 l 332 929 l 406 727 l 518 928 l 647 829 l 513 680 l 651 696 l 640 514 l 475 537 l 576 374 l 401 307 l 359 484 l 260 311 z "},"+":{"ha":431,"x_min":69,"x_max":486,"o":"m 69 326 q 92 532 79 453 l 107 532 q 220 538 170 532 q 229 592 224 567 q 238 645 233 617 q 248 699 243 673 q 416 713 372 707 q 403 656 410 686 q 389 597 396 625 q 376 540 382 568 q 415 544 396 541 q 452 548 434 547 q 486 552 471 549 q 441 324 460 434 l 372 326 q 331 327 351 326 q 309 165 327 251 l 144 156 q 180 326 160 216 l 69 326 z "},",":{"ha":274,"x_min":-47,"x_max":285,"o":"m 34 250 l 106 248 l 156 248 q 218 250 187 248 q 285 252 250 251 q 230 41 266 159 q 171 -155 194 -77 l -47 -155 q -24 -41 -37 -99 q 0 70 -11 16 q 20 170 11 123 q 34 250 30 216 z "},"-":{"ha":500,"x_min":57,"x_max":555,"o":"m 507 331 q 269 336 312 336 q 142 334 191 336 q 57 332 94 332 l 123 578 q 313 572 275 572 q 555 579 446 572 l 507 331 z "},".":{"ha":290,"x_min":-11,"x_max":289,"o":"m 118 -33 q 58 -21 81 -33 q 20 8 35 -9 q -11 99 -11 47 q 66 224 -11 187 q 127 236 92 236 q 249 198 209 236 q 289 111 289 160 q 244 12 289 53 q 118 -33 194 -33 z "},"/":{"ha":765,"x_min":-15,"x_max":917,"o":"m 689 1050 q 917 1005 722 1028 q 216 -41 681 655 l -15 14 q 572 864 281 416 q 689 1050 636 963 z "},":":{"ha":271,"x_min":27,"x_max":354,"o":"m 354 800 q 294 472 323 669 q 117 467 205 467 l 100 467 q 123 618 111 544 q 148 768 136 693 q 354 800 241 768 m 277 368 q 231 90 254 240 q 27 58 111 83 q 79 366 52 176 q 182 369 141 369 l 240 369 q 277 368 258 369 z "},";":{"ha":363,"x_min":26,"x_max":403,"o":"m 183 768 l 267 768 q 403 773 327 768 q 378 597 395 682 q 357 472 362 513 q 279 469 332 471 q 200 467 227 468 q 152 467 174 467 l 136 467 q 159 618 146 544 q 183 768 171 693 m 107 368 l 179 366 l 229 366 q 292 368 260 366 q 358 370 323 369 q 303 159 339 277 q 244 -37 267 41 l 26 -37 q 50 77 37 19 q 73 188 62 134 q 94 288 84 241 q 107 368 103 334 z "},"<":{"ha":401,"x_min":65,"x_max":525,"o":"m 198 515 l 403 331 q 372 186 387 258 q 340 41 358 114 q 201 178 271 111 q 65 319 132 244 q 123 693 85 425 q 328 850 227 770 q 525 1023 430 929 q 448 697 495 917 q 323 605 387 648 q 198 515 259 562 z "},"=":{"ha":419,"x_min":12,"x_max":461,"o":"m 88 355 q 106 570 100 452 q 239 564 176 564 q 461 578 355 564 q 404 355 425 463 l 255 354 q 172 355 213 354 q 88 355 130 355 m 12 4 q 71 224 49 107 q 254 224 176 224 q 381 221 332 224 l 369 12 q 235 16 297 16 q 12 4 107 16 z "},">":{"ha":410,"x_min":19,"x_max":488,"o":"m 191 1001 l 488 707 q 423 319 461 567 q 218 167 321 241 q 19 1 114 92 q 85 334 52 123 q 217 425 151 381 q 349 515 283 469 l 159 685 q 174 843 165 765 q 191 1001 183 921 z "},"?":{"ha":609,"x_min":133,"x_max":711,"o":"m 370 345 l 208 328 q 350 646 208 510 q 420 709 388 681 q 473 761 452 738 q 494 799 494 784 q 482 829 494 814 q 445 844 471 844 q 309 774 404 844 q 225 705 267 743 l 152 876 q 311 977 222 940 q 491 1015 400 1015 q 693 918 643 1015 q 711 826 711 884 q 689 720 711 768 q 634 636 667 673 q 560 569 601 600 q 483 507 519 538 q 370 345 392 430 m 386 19 q 373 7 386 19 q 324 -18 361 -4 q 237 -33 288 -33 q 159 2 186 -33 q 133 73 133 37 q 143 137 133 110 q 174 187 153 164 q 291 236 217 236 q 401 203 365 236 q 437 134 437 170 q 424 70 437 98 q 386 19 411 42 z "},"@":{"ha":1371,"x_min":62,"x_max":1421,"o":"m 780 189 q 576 117 666 117 q 422 168 477 117 q 372 282 372 214 q 405 410 372 350 q 496 521 438 469 q 798 663 623 637 q 873 669 830 669 q 1095 609 987 669 q 1048 437 1070 524 l 1005 262 q 1211 544 1211 374 q 1108 731 1211 663 q 864 792 1016 792 q 656 762 760 792 q 470 674 553 732 q 335 530 387 616 q 283 342 283 445 q 319 142 283 239 l 141 -33 q 62 309 62 141 q 195 686 62 519 q 519 918 315 834 q 914 998 712 998 q 1294 857 1154 998 q 1390 713 1358 795 q 1421 547 1421 632 q 1389 380 1421 463 q 1293 234 1356 298 q 1133 130 1229 170 q 909 91 1036 91 q 787 125 819 91 q 774 153 774 136 q 780 189 774 171 m 884 541 q 831 547 863 547 q 753 530 799 547 q 670 486 707 514 q 585 335 585 420 q 604 282 585 302 q 667 262 624 262 q 808 294 741 262 l 884 541 z "},"A":{"ha":601,"x_min":-30,"x_max":644,"o":"m 264 237 l 209 38 q 136 28 178 34 q 54 18 95 23 q -30 8 14 14 q 64 320 26 193 q 127 530 103 448 q 176 692 152 612 q 222 848 199 773 q 262 986 244 924 q 644 1029 513 1004 q 624 712 632 895 q 594 39 606 347 q 515 27 553 33 q 435 15 476 22 q 359 3 393 8 q 385 237 374 133 l 264 237 m 297 376 l 397 382 q 399 410 397 391 q 404 456 401 430 q 427 726 415 601 l 437 846 l 415 845 l 297 376 z "},"B":{"ha":594,"x_min":-1,"x_max":711,"o":"m 628 342 q 604 243 628 292 q 541 155 581 194 q 447 85 500 115 q 334 35 393 56 q 95 -5 217 -5 q -1 3 43 -5 q 104 492 65 245 q 180 989 144 739 q 491 1028 370 1028 q 689 930 633 1028 q 711 840 711 894 q 694 741 711 787 q 650 656 677 694 q 517 552 594 581 q 628 342 628 484 m 271 275 q 445 345 395 289 q 467 399 467 369 q 454 446 467 429 q 420 473 441 463 q 332 495 380 495 l 320 495 q 309 494 315 495 q 299 434 304 460 q 290 385 294 408 q 281 335 286 361 q 271 275 277 309 m 342 665 q 511 758 511 703 q 425 825 511 811 q 387 829 403 829 l 372 829 q 366 793 369 814 q 358 749 362 772 q 349 705 354 727 q 342 665 345 682 z "},"C":{"ha":575,"x_min":54,"x_max":709,"o":"m 313 231 q 385 273 347 231 q 434 362 423 316 l 593 298 q 433 72 532 156 q 252 -3 345 -3 q 111 76 165 -3 q 54 297 54 160 q 90 562 54 434 q 191 790 126 689 q 347 954 256 891 q 544 1016 437 1016 q 662 963 613 1016 q 709 821 709 909 l 709 803 q 708 785 709 795 l 526 736 q 488 770 510 770 q 441 745 465 770 q 393 678 416 719 q 347 587 369 637 q 309 484 326 536 q 271 300 271 370 q 313 231 271 231 z "},"D":{"ha":613,"x_min":5,"x_max":707,"o":"m 248 168 q 423 422 343 229 q 483 602 468 529 q 498 718 498 675 q 469 789 498 760 q 380 818 441 818 q 327 567 357 701 q 248 168 277 339 m 5 0 q 186 983 153 745 q 307 1004 245 994 q 437 1015 368 1015 q 559 991 507 1015 q 644 925 612 967 q 707 709 707 845 q 628 395 707 560 q 411 114 545 222 q 83 -7 258 -7 q 5 0 53 -7 z "},"E":{"ha":473,"x_min":11,"x_max":632,"o":"m 11 -1 l 193 986 l 632 1024 q 616 964 623 993 q 602 906 609 935 q 591 856 595 878 q 480 852 551 852 l 387 852 l 338 602 q 463 608 412 606 q 528 610 513 609 q 517 534 522 571 q 506 457 513 496 q 460 455 491 456 q 395 453 429 454 q 319 450 361 452 l 271 194 l 473 227 l 460 68 l 11 -1 z "},"F":{"ha":473,"x_min":5,"x_max":652,"o":"m 528 456 q 328 461 502 456 l 264 52 q 5 -1 148 31 q 80 342 46 146 q 187 998 144 701 l 652 1023 l 613 852 l 395 852 l 351 604 q 430 605 395 605 l 499 605 q 551 606 532 605 l 528 456 z "},"G":{"ha":693,"x_min":58,"x_max":789,"o":"m 598 762 q 518 865 575 865 q 441 816 483 865 q 363 689 400 766 q 275 335 281 509 q 301 212 275 248 q 361 175 327 175 q 425 189 395 175 q 477 228 454 203 q 534 362 532 285 l 387 340 l 412 477 q 755 529 604 502 q 700 283 746 388 q 589 107 654 178 q 450 1 525 37 q 317 -34 376 -34 q 212 -12 258 -34 q 132 57 165 11 q 58 332 58 155 q 110 642 58 509 q 239 863 161 774 q 408 996 317 952 q 564 1039 498 1039 q 671 1019 631 1039 q 738 967 712 1000 q 789 799 789 905 l 598 762 z "},"H":{"ha":614,"x_min":12,"x_max":760,"o":"m 12 -3 q 189 1001 133 628 l 414 1017 q 326 608 359 789 l 463 624 q 497 814 481 722 q 537 1005 513 907 q 652 1019 591 1015 q 736 1025 713 1024 l 760 1028 q 629 419 693 811 q 572 58 598 243 l 355 34 q 387 190 373 117 q 416 335 401 263 q 439 458 430 407 l 304 446 q 227 42 273 274 l 12 -3 z "},"I":{"ha":278,"x_min":-8,"x_max":408,"o":"m 408 1006 q 220 27 254 220 q 88 15 182 27 q -8 1 -5 3 q 72 345 35 159 q 191 972 156 769 l 408 1006 z "},"J":{"ha":388,"x_min":-38,"x_max":556,"o":"m 58 286 q 85 262 65 273 q 126 251 106 251 q 159 279 146 251 q 182 344 172 307 q 197 420 191 381 q 217 538 202 458 q 256 751 232 617 q 311 1019 279 884 q 556 1063 426 1028 q 481 777 515 929 q 402 395 419 483 q 367 242 385 308 q 319 122 349 176 q 146 -1 250 -1 q -38 72 62 -1 l 58 286 z "},"K":{"ha":642,"x_min":9,"x_max":837,"o":"m 671 41 q 535 43 606 43 q 385 41 464 43 q 331 419 358 216 l 305 391 q 284 288 296 349 q 260 165 273 227 q 235 33 248 103 l 9 -1 q 184 1013 156 677 q 257 1007 217 1009 q 335 1002 297 1005 q 415 1000 373 1000 q 411 979 414 994 q 404 943 408 964 q 395 895 400 921 q 382 824 391 868 q 359 704 373 780 l 368 705 q 446 829 406 764 q 560 1006 528 958 q 837 1038 716 1019 q 514 578 601 718 q 586 307 544 438 q 671 41 628 176 z "},"L":{"ha":419,"x_min":16,"x_max":438,"o":"m 263 195 q 407 199 315 199 q 415 113 410 146 q 422 64 420 80 q 426 43 425 49 l 384 45 q 100 19 241 45 q 16 -3 54 9 q 102 525 49 248 q 194 990 156 802 l 438 1023 q 291 366 312 488 q 263 195 270 244 z "},"M":{"ha":860,"x_min":-42,"x_max":955,"o":"m 492 486 q 699 1010 648 905 q 812 1025 768 1019 q 887 1037 856 1032 q 955 1048 918 1042 q 844 57 888 655 l 601 14 q 613 171 601 62 l 632 334 q 658 525 646 457 l 646 525 q 603 402 627 467 q 555 271 579 338 q 507 140 530 205 q 465 18 483 76 q 382 14 416 16 l 301 9 l 346 525 l 326 525 q 311 465 323 507 q 286 367 300 422 q 254 253 271 312 q 222 144 237 194 q 187 23 198 57 l -42 8 q 258 985 179 675 q 403 993 335 985 q 549 1008 471 1001 q 541 940 545 978 q 530 860 536 902 q 517 774 524 818 q 500 660 510 730 q 473 486 490 590 l 492 486 z "},"N":{"ha":629,"x_min":8,"x_max":774,"o":"m 590 76 q 478 53 574 76 q 363 23 382 30 q 338 288 349 205 q 323 414 328 372 q 304 555 317 472 q 293 493 300 529 q 279 415 286 457 q 212 41 258 285 l 8 -7 q 187 1006 159 743 q 269 1013 231 1009 q 345 1018 307 1016 q 411 1023 382 1020 q 439 846 429 916 q 458 731 450 776 q 472 644 465 686 q 500 498 486 562 q 513 564 506 526 q 528 645 519 602 q 545 732 536 688 q 569 846 555 776 q 605 1021 583 916 l 774 1042 q 590 76 625 365 z "},"O":{"ha":685,"x_min":43,"x_max":777,"o":"m 585 635 q 519 747 585 747 q 370 666 437 747 q 279 488 317 601 q 250 315 250 396 q 296 233 250 260 q 327 224 309 224 q 437 267 389 224 q 518 372 486 309 q 568 505 551 434 q 585 635 585 576 m 777 720 q 753 537 777 637 q 689 353 730 437 q 595 202 648 269 q 483 90 541 136 q 251 -5 362 -5 q 103 62 157 -5 q 43 279 43 137 q 115 613 43 434 q 304 911 187 792 q 568 1039 430 1039 q 735 947 682 1039 q 777 720 777 872 z "},"P":{"ha":526,"x_min":-4,"x_max":650,"o":"m -4 -1 q 191 981 138 632 q 415 1025 340 1025 q 532 1004 490 1025 q 602 948 575 983 q 650 764 650 884 q 621 614 650 686 q 545 485 593 541 q 435 395 498 429 q 307 362 373 362 l 292 362 q 236 46 266 248 l -4 -1 m 384 857 q 320 509 349 661 q 411 587 369 521 q 457 753 457 661 q 434 831 457 804 q 384 857 411 857 z "},"Q":{"ha":730,"x_min":43,"x_max":791,"o":"m 505 106 q 251 -5 374 -5 q 103 62 157 -5 q 43 279 43 137 q 115 613 43 434 q 304 911 187 792 q 568 1039 430 1039 q 735 947 682 1039 q 777 751 777 872 q 658 294 777 502 l 791 138 q 732 64 760 99 q 627 -66 673 -12 q 568 14 598 -27 q 505 106 533 60 m 544 429 q 585 643 585 538 q 519 747 585 747 q 370 666 437 747 q 279 488 317 601 q 250 315 250 396 q 296 233 250 260 q 327 224 309 224 q 415 250 374 224 l 359 342 q 514 464 499 449 l 544 429 z "},"R":{"ha":617,"x_min":5,"x_max":712,"o":"m 423 22 q 315 441 319 391 l 297 435 q 231 57 252 186 l 5 -1 q 178 967 146 681 q 530 1016 335 1016 q 704 914 677 1016 q 712 837 712 883 q 693 737 712 791 q 642 635 674 684 q 475 483 574 536 q 569 268 528 369 q 639 98 610 167 l 423 22 m 437 823 l 377 822 l 332 601 q 469 670 387 606 q 555 777 555 735 q 480 822 555 817 q 437 823 458 823 z "},"S":{"ha":597,"x_min":19,"x_max":718,"o":"m 507 709 q 514 766 514 736 q 499 814 514 796 q 467 833 484 833 q 434 825 450 833 q 401 803 418 817 q 363 736 363 772 q 382 677 363 700 q 429 636 401 655 q 490 597 457 617 q 551 545 522 576 q 616 343 616 469 q 505 92 616 191 q 237 -3 399 -3 q 19 122 118 -3 l 122 324 q 195 255 141 286 q 277 222 250 222 q 322 228 304 222 q 355 244 340 233 q 389 303 389 269 q 368 366 389 338 q 314 420 346 395 q 245 473 282 446 q 176 529 208 499 q 100 671 100 597 q 143 808 100 746 q 250 916 186 871 q 391 988 315 962 q 521 1015 468 1015 q 607 1005 574 1015 q 665 977 640 996 q 718 849 718 933 q 714 810 718 829 q 708 768 711 791 l 507 709 z "},"T":{"ha":503,"x_min":125,"x_max":662,"o":"m 142 817 l 149 994 q 292 989 220 989 q 662 1012 481 989 l 647 937 q 634 873 640 906 q 623 815 628 840 q 560 804 591 807 q 499 795 529 800 q 450 536 475 690 q 374 38 396 194 l 125 -1 q 273 806 235 514 q 208 808 240 810 q 142 817 175 807 z "},"U":{"ha":582,"x_min":43,"x_max":720,"o":"m 184 987 q 254 994 214 990 q 333 1002 294 998 q 414 1009 372 1005 q 358 745 378 842 q 326 589 338 647 q 304 481 313 530 q 275 347 282 378 q 255 227 255 254 q 267 185 255 199 q 298 171 278 171 q 333 190 317 171 q 359 235 349 209 q 374 288 369 260 q 386 342 380 315 q 402 420 392 370 q 422 523 412 469 q 444 632 433 576 q 510 993 472 774 l 720 1006 l 713 971 q 677 774 697 886 q 642 581 658 662 q 579 280 600 369 q 523 136 559 191 q 439 43 487 80 q 229 -24 349 -24 q 103 16 156 -24 q 43 145 43 65 q 43 156 43 151 q 47 193 43 161 q 62 304 50 224 q 89 473 75 385 q 119 648 103 560 q 149 808 136 736 q 184 987 179 963 z "},"V":{"ha":526,"x_min":81,"x_max":693,"o":"m 81 -12 q 152 1009 144 627 q 346 1017 252 1009 l 368 1020 q 342 755 353 859 q 325 587 331 651 q 313 463 319 522 q 293 264 304 361 l 319 264 l 473 1002 q 548 1006 511 1004 q 623 1011 585 1009 q 693 1017 661 1013 q 592 657 635 829 q 517 358 549 486 q 442 42 486 231 l 81 -12 z "},"W":{"ha":834,"x_min":57,"x_max":1005,"o":"m 400 1008 q 302 395 400 1005 l 324 395 q 400 663 363 538 q 450 833 437 787 q 494 989 477 936 l 506 989 q 652 1006 574 989 q 646 956 650 994 q 637 862 643 917 q 627 741 632 807 q 616 612 621 675 q 595 395 606 496 l 621 395 l 753 991 q 844 1004 800 998 q 1005 1028 958 1019 q 905 689 951 871 q 753 66 796 260 l 439 14 l 500 549 l 483 549 l 346 46 l 57 -5 l 163 981 q 286 994 228 983 q 400 1008 343 1004 z "},"X":{"ha":571,"x_min":-50,"x_max":724,"o":"m 307 263 q 186 -8 260 144 l -50 12 q 89 257 19 136 q 217 510 159 378 q 175 758 198 655 q 140 921 152 860 l 362 1013 q 378 868 369 947 q 395 722 388 789 q 522 998 477 910 l 724 944 q 494 506 598 734 q 543 256 510 388 q 591 64 576 123 q 572 58 589 62 q 531 47 556 54 q 476 32 506 41 q 418 15 446 23 q 326 -14 345 -7 q 318 91 321 42 q 311 186 315 140 q 307 263 308 232 z "},"Y":{"ha":533,"x_min":107,"x_max":726,"o":"m 363 594 q 510 1006 408 705 l 726 959 q 591 684 651 807 l 505 505 q 454 399 479 450 q 408 302 429 347 q 345 50 388 199 l 107 20 l 171 300 q 157 671 171 468 q 141 906 144 875 l 138 936 l 365 1023 l 365 781 l 363 646 l 363 594 z "},"Z":{"ha":598,"x_min":11,"x_max":739,"o":"m 324 251 q 602 267 369 251 l 598 56 q 312 43 477 56 q 11 12 84 24 l 12 216 l 407 753 q 178 727 332 753 l 145 723 l 171 941 l 739 982 l 703 791 l 324 251 z "},"[":{"ha":444,"x_min":30,"x_max":631,"o":"m 30 -7 q 240 1046 140 491 l 248 1046 q 306 1048 278 1046 q 370 1051 334 1050 q 450 1055 406 1053 q 631 1080 568 1065 q 610 998 621 1039 q 591 916 600 956 q 556 914 574 914 l 444 914 q 399 682 416 774 q 373 538 382 589 q 354 431 363 487 q 333 310 345 376 q 308 160 321 244 q 404 170 362 160 q 446 180 446 179 l 411 35 q 233 15 330 24 q 30 -7 136 5 z "},"\\":{"ha":708,"x_min":176,"x_max":674,"o":"m 178 1002 q 197 1004 186 1002 q 275 1019 235 1012 q 396 1047 365 1034 q 482 734 442 884 q 548 488 522 583 q 597 309 574 393 q 674 45 651 114 q 573 23 623 30 q 509 14 524 16 q 479 7 495 11 q 449 1 464 4 q 383 245 416 125 q 317 488 350 365 q 248 738 283 610 q 176 1002 213 865 l 178 1002 z "},"]":{"ha":434,"x_min":-27,"x_max":556,"o":"m 556 1057 q 353 7 412 415 l 320 3 q 269 -3 298 0 q -27 -41 130 -19 q -4 123 -20 37 q 172 153 41 134 l 298 863 l 140 845 l 152 1005 l 556 1057 z "},"^":{"ha":506,"x_min":81,"x_max":551,"o":"m 350 247 q 290 49 298 72 q 252 50 271 50 l 218 50 q 81 46 151 50 q 182 232 140 133 q 271 426 224 331 q 308 425 290 425 l 345 425 q 507 430 423 425 q 502 328 502 399 q 551 41 502 172 q 351 53 438 53 q 350 106 350 80 l 350 247 z "},"_":{"ha":557,"x_min":-73,"x_max":541,"o":"m -73 -151 q -42 4 -57 -110 q 190 0 149 0 l 260 0 q 541 5 400 0 q 511 -152 519 -58 l 189 -148 q -73 -151 57 -148 z "},"`":{"ha":506,"x_min":106,"x_max":468,"o":"m 458 18 q 106 107 224 72 q 125 205 114 148 q 147 322 136 263 q 171 448 159 381 q 275 338 225 389 q 468 130 380 229 l 458 18 z "},"a":{"ha":601,"x_min":-30,"x_max":644,"o":"m 264 237 l 209 38 q 136 28 178 34 q 54 18 95 23 q -30 8 14 14 q 64 320 26 193 q 127 530 103 448 q 176 692 152 612 q 222 848 199 773 q 262 986 244 924 q 644 1029 513 1004 q 624 712 632 895 q 594 39 606 347 q 515 27 553 33 q 435 15 476 22 q 359 3 393 8 q 385 237 374 133 l 264 237 m 297 376 l 397 382 q 399 410 397 391 q 404 456 401 430 q 427 726 415 601 l 437 846 l 415 845 l 297 376 z "},"b":{"ha":594,"x_min":-1,"x_max":711,"o":"m 628 342 q 604 243 628 292 q 541 155 581 194 q 447 85 500 115 q 334 35 393 56 q 95 -5 217 -5 q -1 3 43 -5 q 104 492 65 245 q 180 989 144 739 q 491 1028 370 1028 q 689 930 633 1028 q 711 840 711 894 q 694 741 711 787 q 650 656 677 694 q 517 552 594 581 q 628 342 628 484 m 271 275 q 445 345 395 289 q 467 399 467 369 q 454 446 467 429 q 420 473 441 463 q 332 495 380 495 l 320 495 q 309 494 315 495 q 299 434 304 460 q 290 385 294 408 q 281 335 286 361 q 271 275 277 309 m 342 665 q 511 758 511 703 q 425 825 511 811 q 387 829 403 829 l 372 829 q 366 793 369 814 q 358 749 362 772 q 349 705 354 727 q 342 665 345 682 z "},"c":{"ha":575,"x_min":54,"x_max":709,"o":"m 313 231 q 385 273 347 231 q 434 362 423 316 l 593 298 q 433 72 532 156 q 252 -3 345 -3 q 111 76 165 -3 q 54 297 54 160 q 90 562 54 434 q 191 790 126 689 q 347 954 256 891 q 544 1016 437 1016 q 662 963 613 1016 q 709 821 709 909 l 709 803 q 708 785 709 795 l 526 736 q 488 770 510 770 q 441 745 465 770 q 393 678 416 719 q 347 587 369 637 q 309 484 326 536 q 271 300 271 370 q 313 231 271 231 z "},"d":{"ha":613,"x_min":5,"x_max":707,"o":"m 248 168 q 423 422 343 229 q 483 602 468 529 q 498 718 498 675 q 469 789 498 760 q 380 818 441 818 q 327 567 357 701 q 248 168 277 339 m 5 0 q 186 983 153 745 q 307 1004 245 994 q 437 1015 368 1015 q 559 991 507 1015 q 644 925 612 967 q 707 709 707 845 q 628 395 707 560 q 411 114 545 222 q 83 -7 258 -7 q 5 0 53 -7 z "},"e":{"ha":473,"x_min":11,"x_max":632,"o":"m 11 -1 l 193 986 l 632 1024 q 616 964 623 993 q 602 906 609 935 q 591 856 595 878 q 480 852 551 852 l 387 852 l 338 602 q 463 608 412 606 q 528 610 513 609 q 517 534 522 571 q 506 457 513 496 q 460 455 491 456 q 395 453 429 454 q 319 450 361 452 l 271 194 l 473 227 l 460 68 l 11 -1 z "},"f":{"ha":473,"x_min":5,"x_max":652,"o":"m 528 456 q 328 461 502 456 l 264 52 q 5 -1 148 31 q 80 342 46 146 q 187 998 144 701 l 652 1023 l 613 852 l 395 852 l 351 604 q 430 605 395 605 l 499 605 q 551 606 532 605 l 528 456 z "},"g":{"ha":693,"x_min":58,"x_max":789,"o":"m 598 762 q 518 865 575 865 q 441 816 483 865 q 363 689 400 766 q 275 335 281 509 q 301 212 275 248 q 361 175 327 175 q 425 189 395 175 q 477 228 454 203 q 534 362 532 285 l 387 340 l 412 477 q 755 529 604 502 q 700 283 746 388 q 589 107 654 178 q 450 1 525 37 q 317 -34 376 -34 q 212 -12 258 -34 q 132 57 165 11 q 58 332 58 155 q 110 642 58 509 q 239 863 161 774 q 408 996 317 952 q 564 1039 498 1039 q 671 1019 631 1039 q 738 967 712 1000 q 789 799 789 905 l 598 762 z "},"h":{"ha":613,"x_min":11,"x_max":758,"o":"m 11 -3 q 187 1015 156 711 q 412 1004 317 1004 q 324 608 346 722 l 461 624 q 496 814 480 722 q 536 1005 511 907 q 651 1019 590 1015 q 735 1025 712 1024 l 758 1028 q 628 419 692 811 q 571 58 597 243 l 354 34 q 386 190 372 117 q 414 335 400 263 q 438 458 429 407 l 302 446 q 225 42 271 274 l 11 -3 z "},"i":{"ha":278,"x_min":-8,"x_max":408,"o":"m 408 1006 q 220 27 254 220 q 88 15 182 27 q -8 1 -5 3 q 72 345 35 159 q 191 972 156 769 l 408 1006 z "},"j":{"ha":388,"x_min":-38,"x_max":556,"o":"m 58 286 q 85 262 65 273 q 126 251 106 251 q 159 279 146 251 q 182 344 172 307 q 197 420 191 381 q 217 538 202 458 q 256 751 232 617 q 311 1019 279 884 q 556 1063 426 1028 q 481 777 515 929 q 402 395 419 483 q 367 242 385 308 q 319 122 349 176 q 146 -1 250 -1 q -38 72 62 -1 l 58 286 z "},"k":{"ha":642,"x_min":9,"x_max":837,"o":"m 671 41 q 535 43 606 43 q 385 41 464 43 q 331 419 358 216 l 305 391 q 284 288 296 349 q 260 165 273 227 q 235 33 248 103 l 9 -1 q 184 1013 156 677 q 257 1007 217 1009 q 335 1002 297 1005 q 415 1000 373 1000 q 411 979 414 994 q 404 943 408 964 q 395 895 400 921 q 382 824 391 868 q 359 704 373 780 l 368 705 q 446 829 406 764 q 560 1006 528 958 q 837 1038 716 1019 q 514 578 601 718 q 586 307 544 438 q 671 41 628 176 z "},"l":{"ha":419,"x_min":16,"x_max":438,"o":"m 263 195 q 407 199 315 199 q 415 113 410 146 q 422 64 420 80 q 426 43 425 49 l 384 45 q 100 19 241 45 q 16 -3 54 9 q 102 525 49 248 q 194 990 156 802 l 438 1023 q 291 366 312 488 q 263 195 270 244 z "},"m":{"ha":860,"x_min":-42,"x_max":955,"o":"m 492 486 q 699 1010 648 905 q 812 1025 768 1019 q 887 1037 856 1032 q 955 1048 918 1042 q 844 57 888 655 l 601 14 q 613 171 601 62 l 632 334 q 658 525 646 457 l 646 525 q 603 402 627 467 q 555 271 579 338 q 507 140 530 205 q 465 18 483 76 q 382 14 416 16 l 301 9 l 346 525 l 326 525 q 311 465 323 507 q 286 367 300 422 q 254 253 271 312 q 222 144 237 194 q 187 23 198 57 l -42 8 q 258 985 179 675 q 403 993 335 985 q 549 1008 471 1001 q 541 940 545 978 q 530 860 536 902 q 517 774 524 818 q 500 660 510 730 q 473 486 490 590 l 492 486 z "},"n":{"ha":628,"x_min":7,"x_max":773,"o":"m 218 1017 l 258 1017 q 410 1023 285 1017 q 445 841 429 925 q 505 530 488 600 q 517 595 510 559 q 532 672 524 632 q 548 754 540 712 q 604 1021 562 821 l 773 1042 q 589 58 625 357 q 477 35 572 58 q 362 5 381 12 q 302 532 335 377 q 292 471 298 506 q 278 397 285 437 q 210 41 252 250 l 7 -7 q 187 1019 161 730 q 218 1017 206 1017 z "},"o":{"ha":685,"x_min":43,"x_max":777,"o":"m 585 635 q 519 747 585 747 q 370 666 437 747 q 279 488 317 601 q 250 315 250 396 q 296 233 250 260 q 327 224 309 224 q 437 267 389 224 q 518 372 486 309 q 568 505 551 434 q 585 635 585 576 m 777 720 q 753 537 777 637 q 689 353 730 437 q 595 202 648 269 q 483 90 541 136 q 251 -5 362 -5 q 103 62 157 -5 q 43 279 43 137 q 115 613 43 434 q 304 911 187 792 q 568 1039 430 1039 q 735 947 682 1039 q 777 720 777 872 z "},"p":{"ha":526,"x_min":-4,"x_max":650,"o":"m -4 -1 q 191 981 138 632 q 415 1025 340 1025 q 532 1004 490 1025 q 602 948 575 983 q 650 764 650 884 q 621 614 650 686 q 545 485 593 541 q 435 395 498 429 q 307 362 373 362 l 292 362 q 236 46 266 248 l -4 -1 m 384 857 q 320 509 349 661 q 411 587 369 521 q 457 753 457 661 q 434 831 457 804 q 384 857 411 857 z "},"q":{"ha":730,"x_min":43,"x_max":791,"o":"m 505 106 q 251 -5 374 -5 q 103 62 157 -5 q 43 279 43 137 q 115 613 43 434 q 304 911 187 792 q 568 1039 430 1039 q 735 947 682 1039 q 777 751 777 872 q 658 294 777 502 l 791 138 q 732 64 760 99 q 627 -66 673 -12 q 568 14 598 -27 q 505 106 533 60 m 544 429 q 585 643 585 538 q 519 747 585 747 q 370 666 437 747 q 279 488 317 601 q 250 315 250 396 q 296 233 250 260 q 327 224 309 224 q 415 250 374 224 l 359 342 q 514 464 499 449 l 544 429 z "},"r":{"ha":617,"x_min":5,"x_max":712,"o":"m 423 22 q 315 414 319 365 l 297 408 q 264 235 286 346 q 231 57 243 123 l 5 -1 q 178 967 146 681 q 530 1016 335 1016 q 704 914 677 1016 q 712 837 712 883 q 693 737 712 791 q 642 635 674 684 q 475 483 574 536 q 569 268 528 369 q 639 98 610 167 l 423 22 m 437 823 l 377 822 l 332 601 q 469 670 387 606 q 555 777 555 735 q 480 822 555 817 q 437 823 458 823 z "},"s":{"ha":597,"x_min":19,"x_max":718,"o":"m 507 709 q 514 766 514 736 q 499 814 514 796 q 467 833 484 833 q 434 825 450 833 q 401 803 418 817 q 363 736 363 772 q 382 677 363 700 q 429 636 401 655 q 490 597 457 617 q 551 545 522 576 q 616 343 616 469 q 505 92 616 191 q 237 -3 399 -3 q 19 122 118 -3 l 122 324 q 195 255 141 286 q 277 222 250 222 q 322 228 304 222 q 355 244 340 233 q 389 303 389 269 q 368 366 389 338 q 314 420 346 395 q 245 473 282 446 q 176 529 208 499 q 100 671 100 597 q 143 808 100 746 q 250 916 186 871 q 391 988 315 962 q 521 1015 468 1015 q 607 1005 574 1015 q 665 977 640 996 q 718 849 718 933 q 714 810 718 829 q 708 768 711 791 l 507 709 z "},"t":{"ha":503,"x_min":125,"x_max":662,"o":"m 142 817 l 149 994 q 292 989 220 989 q 662 1012 481 989 l 647 937 q 634 873 640 906 q 623 815 628 840 q 560 804 591 807 q 499 795 529 800 q 450 536 475 690 q 374 38 396 194 l 125 -1 q 273 806 235 514 q 208 808 240 810 q 142 817 175 807 z "},"u":{"ha":582,"x_min":43,"x_max":720,"o":"m 184 987 q 254 994 214 990 q 333 1002 294 998 q 414 1009 372 1005 q 358 745 378 842 q 326 589 338 647 q 304 481 313 530 q 275 347 282 378 q 255 227 255 254 q 267 185 255 199 q 298 171 278 171 q 333 190 317 171 q 359 235 349 209 q 374 288 369 260 q 386 342 380 315 q 402 420 392 370 q 422 523 412 469 q 444 632 433 576 q 510 993 472 774 l 720 1006 l 713 971 q 677 774 697 886 q 642 581 658 662 q 579 280 600 369 q 523 136 559 191 q 439 43 487 80 q 229 -24 349 -24 q 103 16 156 -24 q 43 145 43 65 q 43 156 43 151 q 47 193 43 161 q 62 304 50 224 q 89 473 75 385 q 119 648 103 560 q 149 808 136 736 q 184 987 179 963 z "},"v":{"ha":526,"x_min":81,"x_max":693,"o":"m 81 -12 q 152 1009 144 627 q 346 1017 252 1009 l 368 1020 q 342 755 353 859 q 325 587 331 651 q 313 463 319 522 q 293 264 304 361 l 319 264 l 473 1002 q 548 1006 511 1004 q 623 1011 585 1009 q 693 1017 661 1013 q 592 657 635 829 q 517 358 549 486 q 442 42 486 231 l 81 -12 z "},"w":{"ha":834,"x_min":57,"x_max":1005,"o":"m 400 1008 q 302 395 400 1005 l 324 395 q 400 663 363 538 q 450 833 437 787 q 494 989 477 936 l 506 989 q 652 1006 574 989 q 646 956 650 994 q 637 862 643 917 q 627 741 632 807 q 616 612 621 675 q 595 395 606 496 l 621 395 l 753 991 q 844 1004 800 998 q 1005 1028 958 1019 q 905 689 951 871 q 753 66 796 260 l 439 14 l 500 549 l 483 549 l 346 46 l 57 -5 l 163 981 q 286 994 228 983 q 400 1008 343 1004 z "},"x":{"ha":571,"x_min":-50,"x_max":724,"o":"m 307 263 q 186 -8 260 144 l -50 12 q 89 257 19 136 q 217 510 159 378 q 175 758 198 655 q 140 921 152 860 l 362 1013 q 378 868 369 947 q 395 722 388 789 q 522 998 477 910 l 724 944 q 494 506 598 734 q 543 256 510 388 q 591 64 576 123 q 572 58 589 62 q 531 47 556 54 q 476 32 506 41 q 418 15 446 23 q 326 -14 345 -7 q 318 91 321 42 q 311 186 315 140 q 307 263 308 232 z "},"y":{"ha":533,"x_min":107,"x_max":726,"o":"m 363 594 q 510 1006 408 705 l 726 959 q 591 684 651 807 l 505 505 q 454 399 479 450 q 408 302 429 347 q 345 50 388 199 l 107 20 l 171 300 q 157 671 171 468 q 141 906 144 875 l 138 936 l 365 1023 l 365 781 l 363 646 l 363 594 z "},"z":{"ha":598,"x_min":11,"x_max":739,"o":"m 324 251 q 602 267 369 251 l 598 56 q 312 43 477 56 q 11 12 84 24 l 12 216 l 407 753 q 178 727 332 753 l 145 723 l 171 941 l 739 982 l 703 791 l 324 251 z "},"{":{"ha":391,"x_min":47,"x_max":499,"o":"m 336 9 q 156 285 156 100 q 144 395 156 362 q 47 464 118 456 l 72 624 l 83 624 q 155 645 132 624 q 190 700 178 666 q 211 777 202 734 q 241 863 220 819 q 419 1016 290 966 l 499 811 q 382 741 418 804 q 359 682 368 713 q 339 621 351 650 q 245 533 312 551 q 320 419 312 509 q 321 369 321 393 l 321 320 q 342 263 321 289 q 410 212 374 224 l 336 9 z "},"|":{"ha":345,"x_min":31,"x_max":445,"o":"m 445 1053 q 260 0 321 403 q 127 -12 221 0 q 31 -26 34 -24 q 144 532 92 241 q 232 1036 195 823 l 445 1053 z "},"}":{"ha":380,"x_min":26,"x_max":479,"o":"m 381 784 l 380 713 q 392 643 380 662 q 468 610 414 610 l 479 610 l 458 450 q 339 339 368 439 q 324 265 331 308 q 292 178 317 222 q 231 100 267 134 q 42 9 151 26 l 26 198 q 113 229 87 213 q 171 320 164 263 q 279 519 189 484 q 214 624 222 543 q 213 697 212 659 q 208 768 214 735 q 118 852 193 842 l 241 1016 q 377 846 362 960 q 381 784 381 815 z "},"~":{"ha":564,"x_min":95,"x_max":711,"o":"m 293 750 q 210 627 244 750 q 95 688 132 662 q 102 707 96 688 q 119 757 107 727 q 149 821 130 787 q 193 884 167 854 q 338 954 255 954 q 453 895 396 954 q 492 857 475 875 q 524 838 509 838 q 595 959 557 838 q 711 898 688 914 q 597 671 684 745 q 486 629 548 629 q 435 648 460 629 q 385 690 410 667 q 338 731 361 712 q 293 750 315 750 z "},"":{"ha":0,"x_min":0,"x_max":0,"o":""}," ":{"ha":271,"x_min":0,"x_max":0,"o":""},"¡":{"ha":366,"x_min":-99,"x_max":446,"o":"m -99 3 q 37 355 -24 178 q 160 711 99 532 q 241 713 201 711 q 321 719 281 716 q 237 380 278 549 q 152 39 197 210 q 92 31 126 35 q 22 20 57 26 q -45 11 -12 15 q -99 3 -77 7 m 317 1073 q 377 1061 354 1073 q 415 1032 400 1050 q 446 941 446 993 q 369 817 446 853 q 308 804 343 804 q 187 842 227 804 q 147 929 147 880 q 191 1028 147 987 q 317 1073 241 1073 z "},"¢":{"ha":620,"x_min":76,"x_max":731,"o":"m 220 -119 q 243 0 233 -62 q 123 90 171 14 q 76 292 76 167 q 104 531 76 418 q 184 740 133 644 q 307 905 235 836 q 465 1001 378 974 q 481 1104 472 1059 l 613 1107 q 591 1013 601 1065 q 692 953 652 1004 q 731 821 731 902 l 731 803 q 730 785 731 795 l 521 723 l 521 739 q 513 811 521 792 q 498 830 505 830 q 403 731 454 830 q 301 404 332 595 q 293 311 293 350 q 319 240 293 240 q 367 258 346 240 q 404 301 388 275 q 456 416 431 345 l 614 353 q 384 30 526 114 q 368 -107 374 -61 q 334 -109 350 -107 q 300 -111 317 -110 q 260 -115 283 -113 q 220 -119 228 -119 z "},"£":{"ha":557,"x_min":0,"x_max":654,"o":"m 518 43 l 449 45 q 104 19 275 45 q 0 -3 47 9 q 17 97 7 53 q 35 178 27 141 l 69 191 q 155 273 110 202 q 224 425 198 339 q 193 423 209 423 l 129 423 l 171 604 q 193 602 183 602 q 212 601 203 601 l 228 601 q 201 777 201 707 q 224 892 201 848 q 285 966 247 937 q 471 1017 357 1017 q 654 977 575 1017 q 600 783 625 867 q 493 814 541 814 q 420 795 445 814 q 396 723 396 776 q 406 666 396 700 q 422 601 416 632 l 475 601 q 563 605 502 601 l 540 422 l 467 425 q 422 426 445 425 q 372 250 422 334 q 328 195 354 218 q 374 197 349 197 q 427 199 400 198 q 525 202 481 202 q 517 57 517 72 l 518 43 z "},"¤":{"ha":595,"x_min":77,"x_max":704,"o":"m 311 895 q 463 958 388 958 q 582 925 538 958 l 633 978 q 669 938 647 959 q 704 903 690 917 l 640 842 q 652 753 652 798 q 562 498 652 617 q 628 404 625 407 l 540 342 q 531 353 537 343 q 514 381 525 363 l 481 434 q 334 382 407 382 q 213 414 260 382 q 160 363 172 376 l 148 351 l 77 431 l 149 496 q 138 587 138 540 q 164 704 138 635 q 236 830 190 773 l 170 928 q 258 983 239 967 q 275 954 269 964 q 288 933 282 943 q 311 895 296 918 m 283 617 q 303 549 283 576 q 361 521 323 521 q 428 543 399 521 q 480 597 457 564 q 528 742 528 669 q 511 804 528 779 q 454 829 494 829 q 383 808 415 829 q 328 757 351 788 q 283 617 283 692 z "},"¥":{"ha":620,"x_min":65,"x_max":758,"o":"m 170 151 l 95 149 l 65 149 l 98 264 l 195 264 l 203 300 l 203 345 l 103 345 l 125 460 q 148 458 136 458 l 201 457 q 171 936 194 689 l 397 1023 l 397 781 l 396 646 l 396 594 q 543 1006 441 705 l 758 959 q 636 708 716 871 q 515 460 556 545 q 574 462 556 460 q 602 464 591 464 l 557 345 l 460 345 l 441 302 l 433 263 l 543 263 l 515 151 q 453 151 480 151 q 406 152 426 151 q 394 112 399 130 q 385 79 389 94 q 377 50 380 64 l 140 20 l 170 151 z "},"¦":{"ha":338,"x_min":27,"x_max":441,"o":"m 328 434 q 256 0 281 167 q 123 -12 217 0 q 27 -26 30 -24 q 115 401 66 142 l 328 434 m 151 591 q 180 762 167 682 q 228 1036 208 925 l 441 1053 q 393 790 408 875 q 361 616 377 705 l 151 591 z "},"§":{"ha":610,"x_min":31,"x_max":731,"o":"m 488 363 q 525 222 525 285 q 503 114 525 159 q 442 38 480 69 q 248 -24 363 -24 q 31 58 134 -24 l 94 224 q 167 173 123 193 q 241 153 210 153 q 288 168 271 153 q 305 208 305 182 q 272 268 305 233 q 198 341 239 302 q 124 422 157 380 q 91 506 91 464 q 137 632 91 575 q 281 716 183 689 q 236 838 236 783 q 264 932 236 892 q 335 998 292 971 q 538 1055 426 1055 q 716 971 670 1055 q 731 914 731 941 q 728 873 731 887 q 724 845 726 860 l 551 833 q 534 887 551 872 q 495 902 518 902 q 450 885 472 902 q 427 848 427 868 q 444 814 427 829 q 485 785 460 800 q 539 751 510 769 q 594 708 568 732 q 651 578 651 652 q 604 452 651 505 q 488 363 557 399 m 366 472 q 420 559 420 488 q 380 618 420 583 q 332 593 357 616 q 308 545 308 571 q 324 503 308 518 q 366 472 340 488 z "},"¨":{"ha":897,"x_min":259,"x_max":841,"o":"m 480 48 q 471 39 480 48 q 433 18 461 30 q 360 7 406 7 q 287 43 315 7 q 259 115 259 80 q 267 172 259 149 q 290 212 274 194 q 389 250 326 250 q 485 215 452 250 q 518 146 518 180 q 509 90 518 113 q 480 48 499 66 m 803 48 q 793 39 803 48 q 757 18 784 30 q 684 7 730 7 q 610 43 637 7 q 582 115 582 80 q 589 172 582 149 q 613 212 597 194 q 711 250 648 250 q 808 215 774 250 q 841 146 841 180 q 831 90 841 113 q 803 48 822 66 z "},"©":{"ha":799,"x_min":83,"x_max":875,"o":"m 456 1020 q 612 1048 533 1048 q 739 1025 692 1048 q 817 959 785 1001 q 875 735 875 878 q 825 477 875 593 q 701 281 776 362 q 535 155 625 199 q 374 111 445 111 q 251 127 302 111 q 163 176 199 142 q 83 384 83 248 q 216 823 83 625 q 456 1020 311 963 m 359 229 q 522 277 448 229 q 650 398 595 326 q 734 553 704 471 q 764 720 764 636 q 732 868 764 804 q 632 932 700 932 q 363 838 467 932 q 239 629 279 762 q 208 404 208 525 l 208 377 q 301 241 208 281 q 359 229 327 229 m 422 420 q 505 529 468 420 l 602 490 q 505 325 562 380 q 394 270 448 270 q 306 319 340 270 q 271 455 271 368 q 294 621 271 543 q 357 760 316 699 q 452 860 397 822 q 561 898 507 898 q 644 866 614 898 q 674 780 674 834 l 674 768 q 673 755 674 762 l 545 718 l 545 726 q 532 783 545 783 q 448 661 491 783 q 406 464 406 547 q 422 420 406 420 z "},"ª":{"ha":545,"x_min":106,"x_max":670,"o":"m 454 1038 q 670 978 563 1038 q 661 901 670 971 q 646 806 651 831 l 597 544 q 564 488 590 505 q 506 472 537 472 q 447 488 475 472 q 419 538 419 505 l 419 548 q 420 557 419 552 q 278 487 361 487 q 157 540 206 487 q 106 673 106 597 q 133 812 106 749 q 207 925 160 875 q 317 1006 254 975 q 454 1038 381 1038 m 481 910 q 439 916 460 916 q 395 901 418 916 q 355 863 373 887 q 313 741 313 806 q 368 631 313 631 q 435 663 399 631 l 481 910 z "},"«":{"ha":646,"x_min":60,"x_max":749,"o":"m 193 515 l 343 331 q 313 186 327 258 q 281 41 298 114 q 169 178 224 111 q 60 319 114 244 q 118 693 80 425 q 279 810 180 747 q 437 905 377 872 q 374 635 403 774 q 267 566 309 591 q 193 515 225 541 m 505 515 l 655 331 q 625 186 639 258 q 593 41 610 114 q 481 178 536 111 q 372 319 426 244 q 430 693 392 425 q 591 810 492 747 q 749 905 689 872 q 686 635 715 774 q 579 566 621 591 q 505 515 537 541 z "},"¬":{"ha":555,"x_min":94,"x_max":625,"o":"m 94 541 l 119 665 q 356 671 263 669 q 488 675 449 674 q 625 680 557 675 q 547 362 574 487 l 330 338 q 347 404 338 372 q 365 472 355 437 q 384 541 374 507 l 94 541 z "},"­":{"ha":500,"x_min":123,"x_max":621,"o":"m 574 331 q 335 336 378 336 q 209 334 258 336 q 123 332 160 332 l 190 578 q 380 572 342 572 q 621 579 513 572 l 574 331 z "},"®":{"ha":747,"x_min":91,"x_max":829,"o":"m 438 1021 q 583 1048 509 1048 q 701 1026 656 1048 q 773 964 745 1004 q 829 755 829 887 q 783 517 829 624 q 667 334 736 410 q 513 217 597 258 q 362 176 429 176 q 248 191 296 176 q 165 236 199 206 q 91 430 91 302 q 145 708 91 570 q 438 1021 237 944 m 351 852 q 522 871 446 871 q 625 864 597 871 q 670 846 654 857 q 699 777 699 827 q 654 672 699 726 q 541 590 609 618 q 600 418 570 515 q 692 573 659 488 q 726 716 726 658 q 718 813 726 774 q 696 880 711 852 q 602 940 665 940 q 351 852 449 940 m 239 335 q 343 285 282 285 q 541 359 452 285 l 465 339 q 419 549 423 502 l 396 545 q 374 454 388 515 q 350 358 359 393 l 239 335 m 316 815 q 208 448 208 680 l 208 411 q 214 377 208 395 q 316 815 281 624 m 499 768 l 450 766 l 420 648 q 491 673 456 651 q 559 746 559 711 q 499 768 559 768 z "},"°":{"ha":331,"x_min":136,"x_max":472,"o":"m 232 880 q 232 865 232 880 q 250 826 232 850 q 309 802 269 802 q 371 829 349 802 q 393 886 393 856 q 373 937 393 916 q 313 959 353 959 q 252 935 273 959 q 232 880 232 910 m 290 705 q 221 719 250 705 q 174 755 193 732 q 136 868 136 802 q 176 985 136 937 q 307 1038 224 1038 q 431 990 387 1038 q 472 883 472 949 q 423 762 472 812 q 290 705 370 705 z "},"±":{"ha":510,"x_min":16,"x_max":522,"o":"m 90 395 q 114 571 100 518 l 133 570 q 247 576 195 570 l 256 624 q 266 668 260 644 q 275 713 271 692 q 450 726 396 718 q 437 677 444 703 q 408 576 420 624 q 448 581 429 578 q 488 585 468 583 q 522 589 507 586 q 476 393 496 495 l 404 395 q 361 396 382 395 q 339 258 357 328 l 171 255 q 195 347 187 308 l 205 395 l 90 395 m 212 60 l 90 58 l 16 58 l 47 191 q 122 189 88 190 q 190 189 156 189 q 302 189 255 189 q 484 193 350 189 l 473 57 q 374 58 422 57 l 212 60 z "},"²":{"ha":604,"x_min":58,"x_max":715,"o":"m 137 711 q 134 745 134 727 q 237 941 134 865 q 456 1012 331 1012 q 693 892 629 1012 q 715 799 715 853 q 684 694 715 745 q 597 597 652 644 q 305 419 498 513 q 458 423 384 419 q 593 430 533 427 l 570 275 q 507 273 543 274 q 429 271 471 273 q 345 269 388 270 q 233 267 301 269 q 58 262 164 264 l 81 397 q 288 600 94 471 q 442 711 407 678 q 477 769 477 743 q 462 812 477 795 q 422 830 446 830 q 383 822 399 830 q 358 802 368 814 q 340 745 340 779 l 340 732 q 342 728 340 730 q 137 711 155 712 z "},"³":{"ha":556,"x_min":66,"x_max":627,"o":"m 300 415 q 331 374 300 374 q 377 393 358 374 q 414 459 414 430 q 384 510 414 488 q 296 532 354 532 q 189 526 237 532 q 110 518 141 521 l 132 681 q 414 848 216 726 l 155 844 l 170 1006 q 340 1013 275 1010 q 444 1017 404 1016 q 518 1020 484 1019 q 627 1023 589 1023 l 597 789 l 385 673 q 598 548 557 646 q 610 477 610 518 q 582 385 610 437 q 505 293 553 334 q 262 198 396 198 q 121 233 176 198 q 66 349 66 267 q 77 404 66 377 l 300 415 z "},"´":{"ha":506,"x_min":114,"x_max":468,"o":"m 114 71 l 115 164 q 293 334 210 259 q 449 488 376 410 q 456 315 456 396 q 468 149 457 235 q 292 83 387 117 q 115 18 197 49 q 114 46 114 33 l 114 71 z "},"¶":{"ha":623,"x_min":127,"x_max":712,"o":"m 165 -1 l 274 511 q 163 587 198 534 q 127 701 127 640 q 153 818 127 761 q 225 921 178 875 q 494 1025 332 1025 q 712 981 578 1025 q 602 469 650 719 q 522 46 553 220 l 377 31 l 464 483 l 415 483 l 315 19 l 165 -1 z "},"·":{"ha":297,"x_min":140,"x_max":439,"o":"m 269 389 q 209 401 232 389 q 171 430 186 412 q 140 521 140 469 q 217 646 140 609 q 278 658 243 658 q 399 620 359 658 q 439 533 439 582 q 395 434 439 475 q 269 389 345 389 z "},"¸":{"ha":506,"x_min":123,"x_max":427,"o":"m 288 26 l 372 14 q 427 -95 427 -41 q 374 -190 427 -152 q 240 -229 320 -229 q 123 -178 164 -229 l 151 -56 q 220 -95 186 -95 q 274 -73 254 -95 q 294 -24 294 -50 q 288 26 294 1 z "},"¹":{"ha":441,"x_min":111,"x_max":540,"o":"m 111 739 q 138 943 118 780 q 540 1001 210 959 q 475 654 509 845 q 403 264 442 463 q 165 218 319 241 q 273 760 240 570 q 174 749 217 755 q 111 739 130 742 z "},"º":{"ha":533,"x_min":114,"x_max":661,"o":"m 349 869 q 340 856 349 869 q 319 809 331 844 q 308 728 308 774 q 326 659 308 682 q 368 636 343 636 q 416 650 392 636 q 458 690 439 665 q 505 827 505 750 q 486 897 505 871 q 439 922 467 922 q 390 908 412 922 q 349 869 368 894 m 661 821 q 637 711 661 768 q 580 618 614 655 q 500 556 545 582 q 305 502 407 502 q 129 608 171 502 q 114 715 114 646 q 142 846 114 784 q 216 949 171 909 q 430 1032 304 1032 q 591 979 526 1032 q 661 821 661 921 z "},"»":{"ha":643,"x_min":19,"x_max":708,"o":"m 575 457 l 425 614 q 455 760 441 688 q 487 905 469 831 q 599 768 544 834 q 708 627 654 701 q 650 252 688 521 q 493 138 595 202 q 331 41 391 73 q 367 190 350 111 q 393 311 384 269 q 484 384 448 355 q 575 457 556 438 m 263 457 l 113 614 q 143 760 129 688 q 175 905 157 831 q 287 768 232 834 q 396 627 342 701 q 338 252 376 521 q 181 138 283 202 q 19 41 79 73 q 55 190 38 111 q 81 311 72 269 q 172 384 136 355 q 263 457 244 438 z "},"¼":{"ha":1506,"x_min":141,"x_max":1516,"o":"m 887 190 l 1103 686 q 1321 697 1227 686 q 1143 304 1241 547 q 1137 279 1141 289 l 1234 279 q 1240 302 1236 286 q 1249 341 1244 319 q 1261 389 1255 363 q 1278 458 1267 415 q 1306 575 1289 502 q 1432 588 1378 583 q 1514 595 1485 593 q 1500 535 1511 581 q 1477 438 1489 490 q 1454 341 1465 387 q 1440 279 1443 296 l 1516 279 l 1461 113 l 1392 113 l 1379 -24 l 1154 -58 l 1181 110 l 948 95 l 887 190 m 141 739 q 168 943 148 780 q 570 1001 240 959 q 505 654 538 845 q 433 264 472 463 q 195 218 349 241 q 302 760 270 570 q 203 749 247 755 q 141 739 160 742 m 1015 1050 q 1242 1005 1047 1028 q 541 -41 1006 655 l 311 14 q 898 864 606 416 q 1015 1050 962 963 z "},"½":{"ha":1530,"x_min":208,"x_max":1649,"o":"m 208 739 q 235 943 214 780 q 636 1001 307 959 q 572 654 605 845 q 499 264 538 463 q 262 218 415 241 q 369 760 336 570 q 270 749 313 755 q 208 739 227 742 m 1074 1050 q 1302 1005 1107 1028 q 601 -41 1066 655 l 370 14 q 958 864 666 416 q 1074 1050 1021 963 m 1072 441 q 1069 475 1069 457 q 1172 671 1069 595 q 1390 742 1265 742 q 1628 623 1564 742 q 1649 529 1649 583 q 1618 425 1649 475 q 1531 327 1587 374 q 1240 149 1432 243 q 1393 153 1318 149 q 1527 160 1468 157 l 1504 5 q 1441 3 1477 4 q 1364 1 1405 3 q 1279 -1 1322 0 q 1167 -3 1236 -1 q 993 -8 1099 -5 l 1016 127 q 1222 330 1028 201 q 1377 441 1341 408 q 1412 499 1412 473 q 1396 543 1412 525 q 1357 560 1381 560 q 1318 552 1333 560 q 1293 532 1302 544 q 1275 475 1275 509 l 1275 463 q 1276 458 1275 460 q 1072 441 1089 442 z "},"¾":{"ha":1569,"x_min":88,"x_max":1580,"o":"m 951 190 l 1166 686 q 1385 697 1291 686 q 1207 304 1305 547 q 1200 279 1204 289 l 1298 279 q 1303 302 1299 286 q 1313 341 1308 319 q 1324 389 1318 363 q 1341 458 1331 415 q 1370 575 1352 502 q 1495 588 1442 583 q 1577 595 1549 593 q 1564 535 1575 581 q 1541 438 1553 490 q 1518 341 1529 387 q 1504 279 1507 296 l 1580 279 l 1525 113 l 1455 113 l 1443 -24 l 1218 -58 l 1245 110 l 1012 95 l 951 190 m 321 415 q 353 374 321 374 q 399 393 380 374 q 435 459 435 430 q 406 510 435 488 q 317 532 376 532 q 211 526 259 532 q 132 518 163 521 l 153 681 q 435 848 237 726 l 176 844 l 191 1006 q 361 1013 297 1010 q 466 1017 426 1016 q 540 1020 506 1019 q 648 1023 609 1023 l 618 789 l 407 673 q 620 548 579 646 q 632 477 632 518 q 604 385 632 437 q 526 293 575 334 q 283 198 418 198 q 143 233 198 198 q 88 349 88 267 q 99 404 88 377 l 321 415 m 1101 1050 q 1329 1005 1134 1028 q 628 -41 1093 655 l 397 14 q 985 864 693 416 q 1101 1050 1048 963 z "},"¿":{"ha":610,"x_min":-38,"x_max":541,"o":"m 303 642 l 465 658 q 323 341 465 476 q 253 277 285 305 q 200 225 221 248 q 179 187 179 202 q 191 157 179 172 q 228 143 202 143 q 364 212 269 143 q 448 281 406 243 l 521 110 q 362 9 450 46 q 182 -28 273 -28 q -20 68 30 -28 q -38 160 -38 102 q -16 266 -38 218 q 39 350 6 313 q 113 417 72 387 q 190 479 153 448 q 303 642 281 556 m 287 967 q 299 979 287 967 q 349 1004 312 990 q 436 1019 385 1019 q 513 984 487 1019 q 540 913 540 949 q 530 849 540 876 q 499 799 519 822 q 382 750 456 750 q 272 783 308 750 q 236 852 236 817 q 249 916 236 888 q 287 967 262 944 z "},"À":{"ha":601,"x_min":38,"x_max":712,"o":"m 332 237 l 277 38 q 204 28 245 34 q 122 18 163 23 q 38 8 81 14 q 132 320 94 193 q 195 530 171 448 q 243 692 220 612 q 290 848 267 773 q 330 986 312 924 q 712 1029 581 1004 q 692 712 700 895 q 662 39 674 347 q 583 27 621 33 q 503 15 544 22 q 427 3 461 8 q 453 237 442 133 l 332 237 m 365 376 l 465 382 q 467 410 465 391 q 472 456 469 430 q 495 726 483 601 l 505 846 l 483 845 l 365 376 m 597 1065 q 244 1154 362 1119 q 263 1253 252 1195 q 286 1369 274 1310 q 309 1495 297 1428 q 414 1385 363 1436 q 606 1177 518 1276 l 597 1065 z "},"Á":{"ha":601,"x_min":38,"x_max":712,"o":"m 332 237 l 277 38 q 204 28 245 34 q 122 18 163 23 q 38 8 81 14 q 132 320 94 193 q 195 530 171 448 q 243 692 220 612 q 290 848 267 773 q 330 986 312 924 q 712 1029 581 1004 q 692 712 700 895 q 662 39 674 347 q 583 27 621 33 q 503 15 544 22 q 427 3 461 8 q 453 237 442 133 l 332 237 m 365 376 l 465 382 q 467 410 465 391 q 472 456 469 430 q 495 726 483 601 l 505 846 l 483 845 l 365 376 m 343 1118 l 345 1211 q 522 1381 439 1306 q 678 1535 605 1457 q 686 1362 685 1443 q 697 1196 686 1282 q 521 1130 616 1164 q 345 1065 426 1096 q 343 1093 343 1080 l 343 1118 z "},"Â":{"ha":601,"x_min":38,"x_max":732,"o":"m 332 237 l 277 38 q 204 28 245 34 q 122 18 163 23 q 38 8 81 14 q 132 320 94 193 q 195 530 171 448 q 243 692 220 612 q 290 848 267 773 q 330 986 312 924 q 712 1029 581 1004 q 692 712 700 895 q 662 39 674 347 q 583 27 621 33 q 503 15 544 22 q 427 3 461 8 q 453 237 442 133 l 332 237 m 365 376 l 465 382 q 467 410 465 391 q 472 456 469 430 q 495 726 483 601 l 505 846 l 483 845 l 365 376 m 319 1133 q 552 1426 460 1336 q 628 1419 606 1417 q 652 1417 650 1420 q 692 1279 666 1370 q 732 1137 718 1188 q 632 1058 667 1082 l 548 1222 q 475 1146 502 1176 q 393 1057 418 1081 q 319 1133 345 1097 z "},"Ã":{"ha":601,"x_min":38,"x_max":849,"o":"m 332 237 l 277 38 q 204 28 245 34 q 122 18 163 23 q 38 8 81 14 q 132 320 94 193 q 195 530 171 448 q 243 692 220 612 q 290 848 267 773 q 330 986 312 924 q 712 1029 581 1004 q 692 712 700 895 q 662 39 674 347 q 583 27 621 33 q 503 15 544 22 q 427 3 461 8 q 453 237 442 133 l 332 237 m 365 376 l 465 382 q 467 410 465 391 q 472 456 469 430 q 495 726 483 601 l 505 846 l 483 845 l 365 376 m 774 1363 q 849 1302 837 1316 q 659 1072 768 1118 q 604 1062 635 1062 q 556 1077 574 1062 q 525 1109 538 1092 q 496 1142 511 1127 q 457 1157 481 1157 q 413 1145 433 1157 q 376 1116 393 1133 q 342 1082 358 1100 q 311 1051 326 1063 q 280 1074 293 1063 q 256 1094 267 1085 q 236 1112 244 1103 l 245 1131 q 411 1340 319 1284 q 475 1358 441 1358 q 536 1339 510 1358 q 581 1297 562 1320 q 612 1257 600 1275 q 631 1238 624 1238 q 743 1329 673 1238 q 774 1363 760 1351 z "},"Ä":{"ha":601,"x_min":38,"x_max":814,"o":"m 332 237 l 277 38 q 204 28 245 34 q 122 18 163 23 q 38 8 81 14 q 132 320 94 193 q 195 530 171 448 q 243 692 220 612 q 290 848 267 773 q 330 986 312 924 q 712 1029 581 1004 q 692 712 700 895 q 662 39 674 347 q 583 27 621 33 q 503 15 544 22 q 427 3 461 8 q 453 237 442 133 l 332 237 m 365 376 l 465 382 q 467 410 465 391 q 472 456 469 430 q 495 726 483 601 l 505 846 l 483 845 l 365 376 m 453 1095 q 444 1086 453 1095 q 406 1065 434 1077 q 333 1054 378 1054 q 260 1090 288 1054 q 232 1162 232 1127 q 239 1219 232 1196 q 263 1259 247 1241 q 361 1297 298 1297 q 458 1262 425 1297 q 491 1194 491 1227 q 481 1137 491 1160 q 453 1095 472 1114 m 776 1095 q 766 1086 776 1095 q 730 1065 757 1077 q 656 1054 703 1054 q 583 1090 610 1054 q 555 1162 555 1127 q 562 1219 555 1196 q 586 1259 570 1241 q 684 1297 621 1297 q 781 1262 747 1297 q 814 1194 814 1227 q 804 1137 814 1160 q 776 1095 795 1114 z "},"Å":{"ha":601,"x_min":38,"x_max":712,"o":"m 332 237 l 277 38 q 204 28 245 34 q 122 18 163 23 q 38 8 81 14 q 132 320 94 193 q 195 530 171 448 q 243 692 220 612 q 290 848 267 773 q 330 986 312 924 q 712 1029 581 1004 q 692 712 700 895 q 662 39 674 347 q 583 27 621 33 q 503 15 544 22 q 427 3 461 8 q 453 237 442 133 l 332 237 m 365 376 l 465 382 q 467 410 465 391 q 472 456 469 430 q 495 726 483 601 l 505 846 l 483 845 l 365 376 m 465 1199 q 465 1184 465 1199 q 484 1145 465 1169 q 543 1120 503 1120 q 605 1147 582 1120 q 628 1204 628 1175 q 608 1257 628 1234 q 547 1279 587 1279 q 486 1254 506 1279 q 465 1199 465 1229 m 528 1047 q 462 1060 488 1047 q 416 1095 435 1073 q 381 1200 381 1137 q 471 1347 381 1306 q 542 1360 502 1360 q 611 1348 582 1360 q 661 1316 640 1336 q 699 1215 699 1278 q 652 1101 699 1149 q 528 1047 602 1047 z "},"Æ":{"ha":716,"x_min":-41,"x_max":841,"o":"m 787 846 q 694 852 749 852 l 659 602 q 720 608 693 608 q 762 610 747 609 q 752 534 757 571 q 741 457 747 496 q 708 455 726 456 q 674 453 690 454 q 640 450 658 452 l 604 195 l 720 205 l 707 46 l 342 -1 l 342 3 l 339 3 q 357 90 349 49 q 373 171 365 132 q 385 237 381 210 l 283 237 l 212 38 q 60 19 111 24 q -41 8 8 14 q 229 703 148 481 q 334 986 311 924 q 473 993 401 991 q 696 1002 621 996 l 841 1015 l 787 846 m 480 845 l 435 726 l 328 376 q 358 378 334 377 q 410 382 404 381 q 433 518 412 403 l 464 684 q 495 846 486 802 l 480 845 z "},"Ç":{"ha":574,"x_min":96,"x_max":776,"o":"m 380 231 q 452 273 414 231 q 500 362 490 316 l 659 298 q 499 72 598 156 q 319 -3 411 -3 q 178 76 232 -3 q 121 297 121 160 q 157 562 121 434 q 258 790 193 689 q 413 954 323 891 q 610 1016 503 1016 q 728 963 680 1016 q 776 821 776 909 l 776 803 q 774 785 776 795 l 593 736 q 554 770 576 770 q 507 745 532 770 q 459 678 483 719 q 414 587 435 637 q 376 484 392 536 q 338 300 338 370 q 380 231 338 231 m 260 26 l 345 14 q 400 -95 400 -41 q 347 -190 400 -152 q 213 -229 293 -229 q 96 -178 137 -229 l 123 -56 q 193 -95 159 -95 q 247 -73 227 -95 q 267 -24 267 -50 q 260 26 267 1 z "},"È":{"ha":473,"x_min":79,"x_max":700,"o":"m 79 -1 l 260 986 l 700 1024 q 684 964 690 993 q 670 906 677 935 q 659 856 663 878 q 548 852 618 852 l 454 852 l 406 602 q 530 608 480 606 q 595 610 581 609 q 585 534 590 571 q 574 457 581 496 q 528 455 559 456 q 463 453 496 454 q 387 450 429 452 l 339 194 l 541 227 l 528 68 l 79 -1 m 556 1065 q 203 1154 321 1119 q 222 1253 212 1195 q 245 1369 233 1310 q 269 1495 256 1428 q 373 1385 323 1436 q 566 1177 477 1276 l 556 1065 z "},"É":{"ha":473,"x_min":79,"x_max":700,"o":"m 79 -1 l 260 986 l 700 1024 q 684 964 690 993 q 670 906 677 935 q 659 856 663 878 q 548 852 618 852 l 454 852 l 406 602 q 530 608 480 606 q 595 610 581 609 q 585 534 590 571 q 574 457 581 496 q 528 455 559 456 q 463 453 496 454 q 387 450 429 452 l 339 194 l 541 227 l 528 68 l 79 -1 m 302 1118 l 304 1211 q 481 1381 399 1306 q 637 1535 564 1457 q 645 1362 644 1443 q 656 1196 646 1282 q 480 1130 575 1164 q 304 1065 385 1096 q 302 1093 302 1080 l 302 1118 z "},"Ê":{"ha":473,"x_min":79,"x_max":701,"o":"m 79 -1 l 260 986 l 700 1024 q 684 964 690 993 q 670 906 677 935 q 659 856 663 878 q 548 852 618 852 l 454 852 l 406 602 q 530 608 480 606 q 595 610 581 609 q 585 534 590 571 q 574 457 581 496 q 528 455 559 456 q 463 453 496 454 q 387 450 429 452 l 339 194 l 541 227 l 528 68 l 79 -1 m 288 1133 q 521 1426 429 1336 q 597 1419 575 1417 q 621 1417 618 1420 q 661 1279 635 1370 q 701 1137 686 1188 q 601 1058 636 1082 l 517 1222 q 444 1146 471 1176 q 362 1057 387 1081 q 288 1133 313 1097 z "},"Ë":{"ha":473,"x_min":79,"x_max":783,"o":"m 79 -1 l 260 986 l 700 1024 q 684 964 690 993 q 670 906 677 935 q 659 856 663 878 q 548 852 618 852 l 454 852 l 406 602 q 530 608 480 606 q 595 610 581 609 q 585 534 590 571 q 574 457 581 496 q 528 455 559 456 q 463 453 496 454 q 387 450 429 452 l 339 194 l 541 227 l 528 68 l 79 -1 m 422 1095 q 412 1086 422 1095 q 375 1065 403 1077 q 302 1054 347 1054 q 229 1090 256 1054 q 201 1162 201 1127 q 208 1219 201 1196 q 232 1259 216 1241 q 330 1297 267 1297 q 427 1262 393 1297 q 460 1194 460 1227 q 450 1137 460 1160 q 422 1095 441 1114 m 745 1095 q 735 1086 745 1095 q 699 1065 726 1077 q 625 1054 671 1054 q 551 1090 579 1054 q 524 1162 524 1127 q 531 1219 524 1196 q 555 1259 538 1241 q 653 1297 590 1297 q 749 1262 716 1297 q 783 1194 783 1227 q 773 1137 783 1160 q 745 1095 764 1114 z "},"Ì":{"ha":278,"x_min":60,"x_max":476,"o":"m 476 1006 q 288 27 321 220 q 156 15 250 27 q 60 1 62 3 q 140 345 103 159 q 259 972 224 769 l 476 1006 m 465 1065 q 113 1154 231 1119 q 132 1253 121 1195 q 154 1369 142 1310 q 178 1495 165 1428 q 282 1385 232 1436 q 475 1177 387 1276 l 465 1065 z "},"Í":{"ha":278,"x_min":60,"x_max":564,"o":"m 476 1006 q 288 27 321 220 q 156 15 250 27 q 60 1 62 3 q 140 345 103 159 q 259 972 224 769 l 476 1006 m 210 1118 l 212 1211 q 389 1381 307 1306 q 545 1535 472 1457 q 553 1362 552 1443 q 564 1196 553 1282 q 388 1130 483 1164 q 212 1065 293 1096 q 210 1093 210 1080 l 210 1118 z "},"Î":{"ha":278,"x_min":60,"x_max":587,"o":"m 476 1006 q 288 27 321 220 q 156 15 250 27 q 60 1 62 3 q 140 345 103 159 q 259 972 224 769 l 476 1006 m 174 1133 q 407 1426 315 1336 q 483 1419 461 1417 q 507 1417 505 1420 q 547 1279 521 1370 q 587 1137 572 1188 q 487 1058 522 1082 l 403 1222 q 330 1146 357 1176 q 248 1057 273 1081 q 174 1133 199 1097 z "},"Ï":{"ha":278,"x_min":60,"x_max":692,"o":"m 476 1006 q 288 27 321 220 q 156 15 250 27 q 60 1 62 3 q 140 345 103 159 q 259 972 224 769 l 476 1006 m 331 1095 q 321 1086 331 1095 q 284 1065 312 1077 q 211 1054 256 1054 q 138 1090 165 1054 q 110 1162 110 1127 q 117 1219 110 1196 q 141 1259 125 1241 q 239 1297 176 1297 q 336 1262 302 1297 q 369 1194 369 1227 q 359 1137 369 1160 q 331 1095 350 1114 m 654 1095 q 644 1086 654 1095 q 608 1065 635 1077 q 534 1054 581 1054 q 460 1090 488 1054 q 433 1162 433 1127 q 440 1219 433 1196 q 464 1259 448 1241 q 562 1297 499 1297 q 659 1262 625 1297 q 692 1194 692 1227 q 682 1137 692 1160 q 654 1095 673 1114 z "},"Ð":{"ha":618,"x_min":18,"x_max":696,"o":"m 94 605 q 103 604 98 604 l 125 604 q 189 983 171 856 q 309 1004 248 994 q 438 1015 370 1015 q 556 989 506 1015 q 637 917 606 963 q 696 682 696 833 q 632 374 696 530 q 334 33 529 118 q 205 3 266 3 q 102 16 145 3 q 18 58 60 28 q 64 288 46 198 q 98 460 83 377 q 79 458 87 458 l 47 458 l 94 605 m 343 457 l 296 458 q 269 321 282 392 q 237 168 255 250 q 412 388 334 225 q 487 681 487 547 q 420 833 487 795 q 369 845 399 845 q 321 604 342 715 l 374 605 q 397 606 387 605 l 363 457 l 343 457 z "},"Ñ":{"ha":629,"x_min":76,"x_max":867,"o":"m 658 76 q 546 53 642 76 q 431 23 450 30 q 406 288 416 205 q 391 414 396 372 q 372 555 385 472 q 361 493 368 529 q 347 415 354 457 q 279 41 326 285 l 76 -7 q 255 1006 227 743 q 336 1013 298 1009 q 412 1018 374 1016 q 479 1023 450 1020 q 507 846 496 916 q 526 731 518 776 q 540 644 533 686 q 568 498 553 562 q 581 564 574 526 q 595 645 587 602 q 613 732 604 688 q 637 846 623 776 q 673 1021 651 916 l 842 1042 q 658 76 693 365 m 792 1363 q 867 1302 854 1316 q 677 1072 785 1118 q 622 1062 652 1062 q 574 1077 591 1062 q 543 1109 556 1092 q 514 1142 529 1127 q 475 1157 499 1157 q 431 1145 450 1157 q 393 1116 411 1133 q 359 1082 376 1100 q 328 1051 343 1063 q 298 1074 311 1063 q 273 1094 285 1085 q 254 1112 262 1103 l 263 1131 q 429 1340 336 1284 q 493 1358 458 1358 q 553 1339 528 1358 q 598 1297 579 1320 q 629 1257 617 1275 q 648 1238 642 1238 q 761 1329 690 1238 q 792 1363 777 1351 z "},"Ò":{"ha":685,"x_min":111,"x_max":845,"o":"m 652 635 q 587 747 652 747 q 438 666 505 747 q 347 488 385 601 q 317 315 317 396 q 363 233 317 260 q 395 224 377 224 q 505 267 457 224 q 586 372 553 309 q 635 505 618 434 q 652 635 652 576 m 845 720 q 821 537 845 637 q 757 353 798 437 q 663 202 716 269 q 551 90 609 136 q 319 -5 430 -5 q 171 62 225 -5 q 111 279 111 137 q 183 613 111 434 q 372 911 255 792 q 636 1039 498 1039 q 803 947 750 1039 q 845 720 845 872 m 796 1065 q 444 1154 562 1119 q 463 1253 452 1195 q 485 1369 473 1310 q 509 1495 496 1428 q 613 1385 563 1436 q 806 1177 718 1276 l 796 1065 z "},"Ó":{"ha":685,"x_min":111,"x_max":897,"o":"m 652 635 q 587 747 652 747 q 438 666 505 747 q 347 488 385 601 q 317 315 317 396 q 363 233 317 260 q 395 224 377 224 q 505 267 457 224 q 586 372 553 309 q 635 505 618 434 q 652 635 652 576 m 845 720 q 821 537 845 637 q 757 353 798 437 q 663 202 716 269 q 551 90 609 136 q 319 -5 430 -5 q 171 62 225 -5 q 111 279 111 137 q 183 613 111 434 q 372 911 255 792 q 636 1039 498 1039 q 803 947 750 1039 q 845 720 845 872 m 543 1118 l 544 1211 q 722 1381 639 1306 q 878 1535 804 1457 q 885 1362 884 1443 q 897 1196 886 1282 q 720 1130 815 1164 q 544 1065 625 1096 q 543 1093 543 1080 l 543 1118 z "},"Ô":{"ha":685,"x_min":111,"x_max":872,"o":"m 652 635 q 587 747 652 747 q 438 666 505 747 q 347 488 385 601 q 317 315 317 396 q 363 233 317 260 q 395 224 377 224 q 505 267 457 224 q 586 372 553 309 q 635 505 618 434 q 652 635 652 576 m 845 720 q 821 537 845 637 q 757 353 798 437 q 663 202 716 269 q 551 90 609 136 q 319 -5 430 -5 q 171 62 225 -5 q 111 279 111 137 q 183 613 111 434 q 372 911 255 792 q 636 1039 498 1039 q 803 947 750 1039 q 845 720 845 872 m 458 1133 q 692 1426 600 1336 q 768 1419 746 1417 q 792 1417 789 1420 q 831 1279 806 1370 q 872 1137 857 1188 q 772 1058 807 1082 l 688 1222 q 614 1146 642 1176 q 533 1057 557 1081 q 458 1133 484 1097 z "},"Õ":{"ha":685,"x_min":111,"x_max":989,"o":"m 652 635 q 587 747 652 747 q 438 666 505 747 q 347 488 385 601 q 317 315 317 396 q 363 233 317 260 q 395 224 377 224 q 505 267 457 224 q 586 372 553 309 q 635 505 618 434 q 652 635 652 576 m 845 720 q 821 537 845 637 q 757 353 798 437 q 663 202 716 269 q 551 90 609 136 q 319 -5 430 -5 q 171 62 225 -5 q 111 279 111 137 q 183 613 111 434 q 372 911 255 792 q 636 1039 498 1039 q 803 947 750 1039 q 845 720 845 872 m 914 1363 q 989 1302 977 1316 q 799 1072 907 1118 q 744 1062 774 1062 q 696 1077 713 1062 q 665 1109 678 1092 q 636 1142 651 1127 q 597 1157 621 1157 q 553 1145 572 1157 q 515 1116 533 1133 q 481 1082 498 1100 q 450 1051 465 1063 q 420 1074 433 1063 q 395 1094 407 1085 q 376 1112 384 1103 l 385 1131 q 551 1340 458 1284 q 615 1358 581 1358 q 675 1339 650 1358 q 720 1297 701 1320 q 751 1257 739 1275 q 770 1238 764 1238 q 883 1329 812 1238 q 914 1363 899 1351 z "},"Ö":{"ha":685,"x_min":111,"x_max":951,"o":"m 652 635 q 587 747 652 747 q 438 666 505 747 q 347 488 385 601 q 317 315 317 396 q 363 233 317 260 q 395 224 377 224 q 505 267 457 224 q 586 372 553 309 q 635 505 618 434 q 652 635 652 576 m 845 720 q 821 537 845 637 q 757 353 798 437 q 663 202 716 269 q 551 90 609 136 q 319 -5 430 -5 q 171 62 225 -5 q 111 279 111 137 q 183 613 111 434 q 372 911 255 792 q 636 1039 498 1039 q 803 947 750 1039 q 845 720 845 872 m 590 1095 q 581 1086 590 1095 q 543 1065 571 1077 q 470 1054 515 1054 q 397 1090 425 1054 q 369 1162 369 1127 q 376 1219 369 1196 q 400 1259 384 1241 q 498 1297 435 1297 q 595 1262 562 1297 q 628 1194 628 1227 q 618 1137 628 1160 q 590 1095 609 1114 m 913 1095 q 903 1086 913 1095 q 867 1065 894 1077 q 793 1054 840 1054 q 720 1090 747 1054 q 692 1162 692 1127 q 699 1219 692 1196 q 723 1259 707 1241 q 821 1297 758 1297 q 918 1262 884 1297 q 951 1194 951 1227 q 941 1137 951 1160 q 913 1095 932 1114 z "},"×":{"ha":689,"x_min":19,"x_max":793,"o":"m 19 189 q 286 510 76 254 q 260 600 273 556 q 209 772 236 685 l 431 864 q 454 766 439 819 q 477 667 468 713 q 591 849 505 716 l 793 808 q 669 654 736 746 q 563 506 601 563 q 661 240 612 355 q 642 235 658 239 q 600 224 625 231 q 545 208 575 217 q 487 191 515 199 q 395 163 414 170 q 381 221 387 194 q 370 275 376 248 q 362 317 365 301 q 255 168 347 292 l 19 189 z "},"Ø":{"ha":685,"x_min":-1,"x_max":865,"o":"m 568 1039 q 722 967 667 1039 l 770 1031 l 842 978 l 865 1005 l 764 875 q 777 726 777 815 q 753 537 777 637 q 689 353 730 437 q 595 202 648 269 q 483 90 541 136 q 251 -5 362 -5 q 114 49 168 -5 l 68 -11 l -1 56 l 65 133 q 43 276 43 195 q 62 443 43 357 q 115 614 81 529 q 197 775 149 699 q 304 911 245 852 q 568 1039 430 1039 m 273 251 q 345 233 308 233 q 418 254 382 233 q 483 309 453 275 q 536 385 513 342 q 575 472 559 429 q 610 635 610 563 q 606 673 610 656 l 273 251 m 574 741 q 493 800 538 800 q 404 759 448 800 q 323 654 359 718 q 263 517 286 591 q 240 377 240 442 q 243 342 240 358 l 574 741 z "},"Ù":{"ha":582,"x_min":111,"x_max":788,"o":"m 252 987 q 322 994 282 990 q 401 1002 362 998 q 481 1009 439 1005 q 426 745 446 842 q 393 589 406 647 q 372 481 381 530 q 343 347 350 378 q 323 227 323 254 q 334 185 323 199 q 366 171 346 171 q 401 190 385 171 q 427 235 416 209 q 442 288 437 260 q 454 342 448 315 q 470 420 460 370 q 490 523 480 469 q 511 632 500 576 q 578 993 540 774 l 788 1006 l 781 971 q 745 774 765 886 q 709 581 726 662 q 647 280 667 369 q 591 136 627 191 q 507 43 555 80 q 297 -24 416 -24 q 171 16 224 -24 q 111 145 111 65 q 111 156 111 151 q 115 193 111 161 q 130 304 118 224 q 157 473 142 385 q 187 648 171 560 q 217 808 203 736 q 252 987 247 963 m 704 1066 q 351 1156 469 1120 q 370 1254 359 1196 q 393 1371 381 1312 q 416 1496 404 1430 q 521 1386 471 1438 q 713 1179 625 1278 l 704 1066 z "},"Ú":{"ha":582,"x_min":111,"x_max":804,"o":"m 252 987 q 322 994 282 990 q 401 1002 362 998 q 481 1009 439 1005 q 426 745 446 842 q 393 589 406 647 q 372 481 381 530 q 343 347 350 378 q 323 227 323 254 q 334 185 323 199 q 366 171 346 171 q 401 190 385 171 q 427 235 416 209 q 442 288 437 260 q 454 342 448 315 q 470 420 460 370 q 490 523 480 469 q 511 632 500 576 q 578 993 540 774 l 788 1006 l 781 971 q 745 774 765 886 q 709 581 726 662 q 647 280 667 369 q 591 136 627 191 q 507 43 555 80 q 297 -24 416 -24 q 171 16 224 -24 q 111 145 111 65 q 111 156 111 151 q 115 193 111 161 q 130 304 118 224 q 157 473 142 385 q 187 648 171 560 q 217 808 203 736 q 252 987 247 963 m 450 1119 l 452 1213 q 629 1383 547 1308 q 785 1537 712 1458 q 793 1364 792 1444 q 804 1198 793 1283 q 628 1131 723 1165 q 452 1066 533 1097 q 450 1095 450 1081 l 450 1119 z "},"Û":{"ha":582,"x_min":111,"x_max":788,"o":"m 252 987 q 322 994 282 990 q 401 1002 362 998 q 481 1009 439 1005 q 426 745 446 842 q 393 589 406 647 q 372 481 381 530 q 343 347 350 378 q 323 227 323 254 q 334 185 323 199 q 366 171 346 171 q 401 190 385 171 q 427 235 416 209 q 442 288 437 260 q 454 342 448 315 q 470 420 460 370 q 490 523 480 469 q 511 632 500 576 q 578 993 540 774 l 788 1006 l 781 971 q 745 774 765 886 q 709 581 726 662 q 647 280 667 369 q 591 136 627 191 q 507 43 555 80 q 297 -24 416 -24 q 171 16 224 -24 q 111 145 111 65 q 111 156 111 151 q 115 193 111 161 q 130 304 118 224 q 157 473 142 385 q 187 648 171 560 q 217 808 203 736 q 252 987 247 963 m 366 1134 q 600 1427 507 1337 q 675 1420 654 1419 q 700 1419 697 1421 q 739 1280 713 1371 q 780 1138 765 1190 q 680 1059 715 1084 l 595 1223 q 522 1147 549 1177 q 441 1058 465 1082 q 366 1134 392 1099 z "},"Ü":{"ha":582,"x_min":111,"x_max":860,"o":"m 252 987 q 322 994 282 990 q 401 1002 362 998 q 481 1009 439 1005 q 426 745 446 842 q 393 589 406 647 q 372 481 381 530 q 343 347 350 378 q 323 227 323 254 q 334 185 323 199 q 366 171 346 171 q 401 190 385 171 q 427 235 416 209 q 442 288 437 260 q 454 342 448 315 q 470 420 460 370 q 490 523 480 469 q 511 632 500 576 q 578 993 540 774 l 788 1006 l 781 971 q 745 774 765 886 q 709 581 726 662 q 647 280 667 369 q 591 136 627 191 q 507 43 555 80 q 297 -24 416 -24 q 171 16 224 -24 q 111 145 111 65 q 111 156 111 151 q 115 193 111 161 q 130 304 118 224 q 157 473 142 385 q 187 648 171 560 q 217 808 203 736 q 252 987 247 963 m 499 1097 q 490 1087 499 1097 q 452 1067 480 1078 q 379 1055 425 1055 q 306 1092 334 1055 q 278 1163 278 1128 q 286 1220 278 1198 q 309 1260 293 1242 q 408 1298 345 1298 q 504 1263 471 1298 q 537 1195 537 1229 q 528 1138 537 1161 q 499 1097 518 1115 m 822 1097 q 812 1087 822 1097 q 776 1067 803 1078 q 703 1055 749 1055 q 629 1092 656 1055 q 601 1163 601 1128 q 608 1220 601 1198 q 632 1260 616 1242 q 730 1298 667 1298 q 827 1263 793 1298 q 860 1195 860 1229 q 850 1138 860 1161 q 822 1097 841 1115 z "},"Ý":{"ha":533,"x_min":175,"x_max":793,"o":"m 431 594 q 578 1006 476 705 l 793 959 q 659 684 719 807 l 572 505 q 522 399 547 450 q 476 302 496 347 q 412 50 456 199 l 175 20 l 239 300 q 225 671 239 468 q 209 906 212 875 l 206 936 l 433 1023 l 433 781 l 431 646 l 431 594 m 363 1118 l 365 1211 q 543 1381 460 1306 q 699 1535 625 1457 q 706 1362 705 1443 q 718 1196 707 1282 q 541 1130 636 1164 q 365 1065 446 1096 q 363 1093 363 1080 l 363 1118 z "},"Þ":{"ha":536,"x_min":1,"x_max":633,"o":"m 1 -1 q 197 1015 142 659 q 300 1026 255 1021 q 382 1035 346 1031 q 427 1039 419 1039 l 399 901 q 581 821 519 901 q 633 632 633 750 q 526 358 633 479 q 417 270 479 302 q 290 237 355 237 l 275 237 q 241 46 245 107 l 1 -1 m 368 732 q 304 384 332 536 q 395 463 353 396 q 441 628 441 536 q 418 706 441 680 q 368 732 395 732 z "},"ß":{"ha":609,"x_min":7,"x_max":722,"o":"m 7 1 q 197 1031 92 376 q 699 925 621 1031 q 722 840 722 892 q 694 740 722 787 q 633 658 667 693 q 570 594 600 623 q 536 534 540 566 l 536 532 q 549 492 536 519 q 578 427 562 465 q 620 260 620 330 q 609 145 620 191 q 572 64 598 99 q 401 -14 515 -14 q 277 56 328 -14 l 317 258 q 347 203 328 224 q 384 183 366 183 q 418 244 418 183 q 406 313 418 286 q 380 369 393 340 q 342 544 342 444 q 372 647 342 601 q 437 729 401 693 q 502 791 472 765 q 532 833 532 818 q 372 864 532 864 q 236 27 271 282 q 103 15 197 27 q 7 1 9 3 z "},"à":{"ha":601,"x_min":38,"x_max":712,"o":"m 332 237 l 277 38 q 204 28 245 34 q 122 18 163 23 q 38 8 81 14 q 132 320 94 193 q 195 530 171 448 q 243 692 220 612 q 290 848 267 773 q 330 986 312 924 q 712 1029 581 1004 q 692 712 700 895 q 662 39 674 347 q 583 27 621 33 q 503 15 544 22 q 427 3 461 8 q 453 237 442 133 l 332 237 m 365 376 l 465 382 q 467 410 465 391 q 472 456 469 430 q 495 726 483 601 l 505 846 l 483 845 l 365 376 m 597 1065 q 244 1154 362 1119 q 263 1253 252 1195 q 286 1369 274 1310 q 309 1495 297 1428 q 414 1385 363 1436 q 606 1177 518 1276 l 597 1065 z "},"á":{"ha":601,"x_min":38,"x_max":712,"o":"m 332 237 l 277 38 q 204 28 245 34 q 122 18 163 23 q 38 8 81 14 q 132 320 94 193 q 195 530 171 448 q 243 692 220 612 q 290 848 267 773 q 330 986 312 924 q 712 1029 581 1004 q 692 712 700 895 q 662 39 674 347 q 583 27 621 33 q 503 15 544 22 q 427 3 461 8 q 453 237 442 133 l 332 237 m 365 376 l 465 382 q 467 410 465 391 q 472 456 469 430 q 495 726 483 601 l 505 846 l 483 845 l 365 376 m 343 1118 l 345 1211 q 522 1381 439 1306 q 678 1535 605 1457 q 686 1362 685 1443 q 697 1196 686 1282 q 521 1130 616 1164 q 345 1065 426 1096 q 343 1093 343 1080 l 343 1118 z "},"â":{"ha":601,"x_min":38,"x_max":732,"o":"m 332 237 l 277 38 q 204 28 245 34 q 122 18 163 23 q 38 8 81 14 q 132 320 94 193 q 195 530 171 448 q 243 692 220 612 q 290 848 267 773 q 330 986 312 924 q 712 1029 581 1004 q 692 712 700 895 q 662 39 674 347 q 583 27 621 33 q 503 15 544 22 q 427 3 461 8 q 453 237 442 133 l 332 237 m 365 376 l 465 382 q 467 410 465 391 q 472 456 469 430 q 495 726 483 601 l 505 846 l 483 845 l 365 376 m 319 1133 q 552 1426 460 1336 q 628 1419 606 1417 q 652 1417 650 1420 q 692 1279 666 1370 q 732 1137 718 1188 q 632 1058 667 1082 l 548 1222 q 475 1146 502 1176 q 393 1057 418 1081 q 319 1133 345 1097 z "},"ã":{"ha":601,"x_min":38,"x_max":849,"o":"m 332 237 l 277 38 q 204 28 245 34 q 122 18 163 23 q 38 8 81 14 q 132 320 94 193 q 195 530 171 448 q 243 692 220 612 q 290 848 267 773 q 330 986 312 924 q 712 1029 581 1004 q 692 712 700 895 q 662 39 674 347 q 583 27 621 33 q 503 15 544 22 q 427 3 461 8 q 453 237 442 133 l 332 237 m 365 376 l 465 382 q 467 410 465 391 q 472 456 469 430 q 495 726 483 601 l 505 846 l 483 845 l 365 376 m 774 1363 q 849 1302 837 1316 q 659 1072 768 1118 q 604 1062 635 1062 q 556 1077 574 1062 q 525 1109 538 1092 q 496 1142 511 1127 q 457 1157 481 1157 q 413 1145 433 1157 q 376 1116 393 1133 q 342 1082 358 1100 q 311 1051 326 1063 q 280 1074 293 1063 q 256 1094 267 1085 q 236 1112 244 1103 l 245 1131 q 411 1340 319 1284 q 475 1358 441 1358 q 536 1339 510 1358 q 581 1297 562 1320 q 612 1257 600 1275 q 631 1238 624 1238 q 743 1329 673 1238 q 774 1363 760 1351 z "},"ä":{"ha":601,"x_min":38,"x_max":814,"o":"m 332 237 l 277 38 q 204 28 245 34 q 122 18 163 23 q 38 8 81 14 q 132 320 94 193 q 195 530 171 448 q 243 692 220 612 q 290 848 267 773 q 330 986 312 924 q 712 1029 581 1004 q 692 712 700 895 q 662 39 674 347 q 583 27 621 33 q 503 15 544 22 q 427 3 461 8 q 453 237 442 133 l 332 237 m 365 376 l 465 382 q 467 410 465 391 q 472 456 469 430 q 495 726 483 601 l 505 846 l 483 845 l 365 376 m 453 1095 q 444 1086 453 1095 q 406 1065 434 1077 q 333 1054 378 1054 q 260 1090 288 1054 q 232 1162 232 1127 q 239 1219 232 1196 q 263 1259 247 1241 q 361 1297 298 1297 q 458 1262 425 1297 q 491 1194 491 1227 q 481 1137 491 1160 q 453 1095 472 1114 m 776 1095 q 766 1086 776 1095 q 730 1065 757 1077 q 656 1054 703 1054 q 583 1090 610 1054 q 555 1162 555 1127 q 562 1219 555 1196 q 586 1259 570 1241 q 684 1297 621 1297 q 781 1262 747 1297 q 814 1194 814 1227 q 804 1137 814 1160 q 776 1095 795 1114 z "},"å":{"ha":601,"x_min":38,"x_max":712,"o":"m 332 237 l 277 38 q 204 28 245 34 q 122 18 163 23 q 38 8 81 14 q 132 320 94 193 q 195 530 171 448 q 243 692 220 612 q 290 848 267 773 q 330 986 312 924 q 712 1029 581 1004 q 692 712 700 895 q 662 39 674 347 q 583 27 621 33 q 503 15 544 22 q 427 3 461 8 q 453 237 442 133 l 332 237 m 365 376 l 465 382 q 467 410 465 391 q 472 456 469 430 q 495 726 483 601 l 505 846 l 483 845 l 365 376 m 465 1199 q 465 1184 465 1199 q 484 1145 465 1169 q 543 1120 503 1120 q 605 1147 582 1120 q 628 1204 628 1175 q 608 1257 628 1234 q 547 1279 587 1279 q 486 1254 506 1279 q 465 1199 465 1229 m 528 1047 q 462 1060 488 1047 q 416 1095 435 1073 q 381 1200 381 1137 q 471 1347 381 1306 q 542 1360 502 1360 q 611 1348 582 1360 q 661 1316 640 1336 q 699 1215 699 1278 q 652 1101 699 1149 q 528 1047 602 1047 z "},"æ":{"ha":716,"x_min":-41,"x_max":841,"o":"m 787 846 q 694 852 749 852 l 659 602 q 720 608 693 608 q 762 610 747 609 q 752 534 757 571 q 741 457 747 496 q 708 455 726 456 q 674 453 690 454 q 640 450 658 452 l 604 195 l 720 205 l 707 46 l 342 -1 l 342 3 l 339 3 q 357 90 349 49 q 373 171 365 132 q 385 237 381 210 l 283 237 l 212 38 q 60 19 111 24 q -41 8 8 14 q 229 703 148 481 q 334 986 311 924 q 473 993 401 991 q 696 1002 621 996 l 841 1015 l 787 846 m 480 845 l 435 726 l 328 376 q 358 378 334 377 q 410 382 404 381 q 433 518 412 403 l 464 684 q 495 846 486 802 l 480 845 z "},"ç":{"ha":574,"x_min":96,"x_max":776,"o":"m 380 231 q 452 273 414 231 q 500 362 490 316 l 659 298 q 499 72 598 156 q 319 -3 411 -3 q 178 76 232 -3 q 121 297 121 160 q 157 562 121 434 q 258 790 193 689 q 413 954 323 891 q 610 1016 503 1016 q 728 963 680 1016 q 776 821 776 909 l 776 803 q 774 785 776 795 l 593 736 q 554 770 576 770 q 507 745 532 770 q 459 678 483 719 q 414 587 435 637 q 376 484 392 536 q 338 300 338 370 q 380 231 338 231 m 260 26 l 345 14 q 400 -95 400 -41 q 347 -190 400 -152 q 213 -229 293 -229 q 96 -178 137 -229 l 123 -56 q 193 -95 159 -95 q 247 -73 227 -95 q 267 -24 267 -50 q 260 26 267 1 z "},"è":{"ha":473,"x_min":79,"x_max":700,"o":"m 79 -1 l 260 986 l 700 1024 q 684 964 690 993 q 670 906 677 935 q 659 856 663 878 q 548 852 618 852 l 454 852 l 406 602 q 530 608 480 606 q 595 610 581 609 q 585 534 590 571 q 574 457 581 496 q 528 455 559 456 q 463 453 496 454 q 387 450 429 452 l 339 194 l 541 227 l 528 68 l 79 -1 m 556 1065 q 203 1154 321 1119 q 222 1253 212 1195 q 245 1369 233 1310 q 269 1495 256 1428 q 373 1385 323 1436 q 566 1177 477 1276 l 556 1065 z "},"é":{"ha":473,"x_min":79,"x_max":700,"o":"m 79 -1 l 260 986 l 700 1024 q 684 964 690 993 q 670 906 677 935 q 659 856 663 878 q 548 852 618 852 l 454 852 l 406 602 q 530 608 480 606 q 595 610 581 609 q 585 534 590 571 q 574 457 581 496 q 528 455 559 456 q 463 453 496 454 q 387 450 429 452 l 339 194 l 541 227 l 528 68 l 79 -1 m 302 1118 l 304 1211 q 481 1381 399 1306 q 637 1535 564 1457 q 645 1362 644 1443 q 656 1196 646 1282 q 480 1130 575 1164 q 304 1065 385 1096 q 302 1093 302 1080 l 302 1118 z "},"ê":{"ha":473,"x_min":79,"x_max":700,"o":"m 79 -1 l 260 986 l 700 1024 q 684 964 690 993 q 670 906 677 935 q 659 856 663 878 q 548 852 618 852 l 454 852 l 406 602 q 530 608 480 606 q 595 610 581 609 q 585 534 590 571 q 574 457 581 496 q 528 455 559 456 q 463 453 496 454 q 387 450 429 452 l 339 194 l 541 227 l 528 68 l 79 -1 m 286 1133 q 519 1426 427 1336 q 595 1419 574 1417 q 620 1417 617 1420 q 659 1279 633 1370 q 700 1137 685 1188 q 600 1058 635 1082 l 515 1222 q 442 1146 469 1176 q 361 1057 385 1081 q 286 1133 312 1097 z "},"ë":{"ha":473,"x_min":79,"x_max":781,"o":"m 79 -1 l 260 986 l 700 1024 q 684 964 690 993 q 670 906 677 935 q 659 856 663 878 q 548 852 618 852 l 454 852 l 406 602 q 530 608 480 606 q 595 610 581 609 q 585 534 590 571 q 574 457 581 496 q 528 455 559 456 q 463 453 496 454 q 387 450 429 452 l 339 194 l 541 227 l 528 68 l 79 -1 m 420 1095 q 411 1086 420 1095 q 374 1065 401 1077 q 300 1054 346 1054 q 227 1090 255 1054 q 199 1162 199 1127 q 207 1219 199 1196 q 231 1259 214 1241 q 329 1297 266 1297 q 425 1262 392 1297 q 458 1194 458 1227 q 449 1137 458 1160 q 420 1095 439 1114 m 743 1095 q 734 1086 743 1095 q 697 1065 724 1077 q 624 1054 670 1054 q 550 1090 578 1054 q 522 1162 522 1127 q 530 1219 522 1196 q 553 1259 537 1241 q 652 1297 589 1297 q 748 1262 715 1297 q 781 1194 781 1227 q 772 1137 781 1160 q 743 1095 762 1114 z "},"ì":{"ha":278,"x_min":60,"x_max":476,"o":"m 476 1006 q 288 27 321 220 q 156 15 250 27 q 60 1 62 3 q 140 345 103 159 q 259 972 224 769 l 476 1006 m 465 1065 q 113 1154 231 1119 q 132 1253 121 1195 q 154 1369 142 1310 q 178 1495 165 1428 q 282 1385 232 1436 q 475 1177 387 1276 l 465 1065 z "},"í":{"ha":278,"x_min":60,"x_max":564,"o":"m 476 1006 q 288 27 321 220 q 156 15 250 27 q 60 1 62 3 q 140 345 103 159 q 259 972 224 769 l 476 1006 m 210 1118 l 212 1211 q 389 1381 307 1306 q 545 1535 472 1457 q 553 1362 552 1443 q 564 1196 553 1282 q 388 1130 483 1164 q 212 1065 293 1096 q 210 1093 210 1080 l 210 1118 z "},"î":{"ha":278,"x_min":60,"x_max":575,"o":"m 476 1006 q 288 27 321 220 q 156 15 250 27 q 60 1 62 3 q 140 345 103 159 q 259 972 224 769 l 476 1006 m 161 1133 q 395 1426 302 1336 q 471 1419 449 1417 q 495 1417 492 1420 q 534 1279 509 1370 q 575 1137 560 1188 q 475 1058 510 1082 l 391 1222 q 317 1146 345 1176 q 236 1057 260 1081 q 161 1133 187 1097 z "},"ï":{"ha":278,"x_min":60,"x_max":669,"o":"m 476 1006 q 288 27 321 220 q 156 15 250 27 q 60 1 62 3 q 140 345 103 159 q 259 972 224 769 l 476 1006 m 308 1095 q 298 1086 308 1095 q 261 1065 289 1077 q 188 1054 233 1054 q 115 1090 142 1054 q 87 1162 87 1127 q 94 1219 87 1196 q 118 1259 102 1241 q 216 1297 153 1297 q 313 1262 279 1297 q 346 1194 346 1227 q 336 1137 346 1160 q 308 1095 327 1114 m 631 1095 q 621 1086 631 1095 q 585 1065 612 1077 q 511 1054 557 1054 q 437 1090 465 1054 q 410 1162 410 1127 q 417 1219 410 1196 q 441 1259 425 1241 q 539 1297 476 1297 q 635 1262 602 1297 q 669 1194 669 1227 q 659 1137 669 1160 q 631 1095 650 1114 z "},"ð":{"ha":618,"x_min":18,"x_max":696,"o":"m 94 605 q 103 604 98 604 l 125 604 q 189 983 171 856 q 309 1004 248 994 q 438 1015 370 1015 q 556 989 506 1015 q 637 917 606 963 q 696 682 696 833 q 632 374 696 530 q 334 33 529 118 q 205 3 266 3 q 102 16 145 3 q 18 58 60 28 q 64 288 46 198 q 98 460 83 377 q 79 458 87 458 l 47 458 l 94 605 m 343 457 l 296 458 q 269 321 282 392 q 237 168 255 250 q 412 388 334 225 q 487 681 487 547 q 420 833 487 795 q 369 845 399 845 q 321 604 342 715 l 374 605 q 397 606 387 605 l 363 457 l 343 457 z "},"ñ":{"ha":628,"x_min":75,"x_max":865,"o":"m 286 1017 l 326 1017 q 477 1023 353 1017 q 513 841 496 925 q 572 530 556 600 q 585 595 578 559 q 600 672 591 632 q 616 754 608 712 q 671 1021 629 821 l 841 1042 q 656 58 693 357 q 545 35 640 58 q 430 5 449 12 q 370 532 403 377 q 359 471 366 506 q 346 397 353 437 q 278 41 320 250 l 75 -7 q 255 1019 229 730 q 286 1017 274 1017 m 791 1363 q 865 1302 853 1316 q 675 1072 784 1118 q 621 1062 651 1062 q 572 1077 590 1062 q 541 1109 555 1092 q 513 1142 528 1127 q 473 1157 498 1157 q 429 1145 449 1157 q 392 1116 410 1133 q 358 1082 374 1100 q 327 1051 342 1063 q 296 1074 309 1063 q 272 1094 283 1085 q 252 1112 260 1103 l 262 1131 q 427 1340 335 1284 q 492 1358 457 1358 q 552 1339 526 1358 q 597 1297 578 1320 q 628 1257 616 1275 q 647 1238 640 1238 q 760 1329 689 1238 q 791 1363 776 1351 z "},"ò":{"ha":685,"x_min":111,"x_max":845,"o":"m 652 635 q 587 747 652 747 q 438 666 505 747 q 347 488 385 601 q 317 315 317 396 q 363 233 317 260 q 395 224 377 224 q 505 267 457 224 q 586 372 553 309 q 635 505 618 434 q 652 635 652 576 m 845 720 q 821 537 845 637 q 757 353 798 437 q 663 202 716 269 q 551 90 609 136 q 319 -5 430 -5 q 171 62 225 -5 q 111 279 111 137 q 183 613 111 434 q 372 911 255 792 q 636 1039 498 1039 q 803 947 750 1039 q 845 720 845 872 m 796 1065 q 444 1154 562 1119 q 463 1253 452 1195 q 485 1369 473 1310 q 509 1495 496 1428 q 613 1385 563 1436 q 806 1177 718 1276 l 796 1065 z "},"ó":{"ha":685,"x_min":111,"x_max":897,"o":"m 652 635 q 587 747 652 747 q 438 666 505 747 q 347 488 385 601 q 317 315 317 396 q 363 233 317 260 q 395 224 377 224 q 505 267 457 224 q 586 372 553 309 q 635 505 618 434 q 652 635 652 576 m 845 720 q 821 537 845 637 q 757 353 798 437 q 663 202 716 269 q 551 90 609 136 q 319 -5 430 -5 q 171 62 225 -5 q 111 279 111 137 q 183 613 111 434 q 372 911 255 792 q 636 1039 498 1039 q 803 947 750 1039 q 845 720 845 872 m 543 1118 l 544 1211 q 722 1381 639 1306 q 878 1535 804 1457 q 885 1362 884 1443 q 897 1196 886 1282 q 720 1130 815 1164 q 544 1065 625 1096 q 543 1093 543 1080 l 543 1118 z "},"ô":{"ha":685,"x_min":111,"x_max":872,"o":"m 652 635 q 587 747 652 747 q 438 666 505 747 q 347 488 385 601 q 317 315 317 396 q 363 233 317 260 q 395 224 377 224 q 505 267 457 224 q 586 372 553 309 q 635 505 618 434 q 652 635 652 576 m 845 720 q 821 537 845 637 q 757 353 798 437 q 663 202 716 269 q 551 90 609 136 q 319 -5 430 -5 q 171 62 225 -5 q 111 279 111 137 q 183 613 111 434 q 372 911 255 792 q 636 1039 498 1039 q 803 947 750 1039 q 845 720 845 872 m 458 1133 q 692 1426 600 1336 q 768 1419 746 1417 q 792 1417 789 1420 q 831 1279 806 1370 q 872 1137 857 1188 q 772 1058 807 1082 l 688 1222 q 614 1146 642 1176 q 533 1057 557 1081 q 458 1133 484 1097 z "},"õ":{"ha":685,"x_min":111,"x_max":989,"o":"m 652 635 q 587 747 652 747 q 438 666 505 747 q 347 488 385 601 q 317 315 317 396 q 363 233 317 260 q 395 224 377 224 q 505 267 457 224 q 586 372 553 309 q 635 505 618 434 q 652 635 652 576 m 845 720 q 821 537 845 637 q 757 353 798 437 q 663 202 716 269 q 551 90 609 136 q 319 -5 430 -5 q 171 62 225 -5 q 111 279 111 137 q 183 613 111 434 q 372 911 255 792 q 636 1039 498 1039 q 803 947 750 1039 q 845 720 845 872 m 914 1363 q 989 1302 977 1316 q 799 1072 907 1118 q 744 1062 774 1062 q 696 1077 713 1062 q 665 1109 678 1092 q 636 1142 651 1127 q 597 1157 621 1157 q 553 1145 572 1157 q 515 1116 533 1133 q 481 1082 498 1100 q 450 1051 465 1063 q 420 1074 433 1063 q 395 1094 407 1085 q 376 1112 384 1103 l 385 1131 q 551 1340 458 1284 q 615 1358 581 1358 q 675 1339 650 1358 q 720 1297 701 1320 q 751 1257 739 1275 q 770 1238 764 1238 q 883 1329 812 1238 q 914 1363 899 1351 z "},"ö":{"ha":685,"x_min":111,"x_max":951,"o":"m 652 635 q 587 747 652 747 q 438 666 505 747 q 347 488 385 601 q 317 315 317 396 q 363 233 317 260 q 395 224 377 224 q 505 267 457 224 q 586 372 553 309 q 635 505 618 434 q 652 635 652 576 m 845 720 q 821 537 845 637 q 757 353 798 437 q 663 202 716 269 q 551 90 609 136 q 319 -5 430 -5 q 171 62 225 -5 q 111 279 111 137 q 183 613 111 434 q 372 911 255 792 q 636 1039 498 1039 q 803 947 750 1039 q 845 720 845 872 m 590 1095 q 581 1086 590 1095 q 543 1065 571 1077 q 470 1054 515 1054 q 397 1090 425 1054 q 369 1162 369 1127 q 376 1219 369 1196 q 400 1259 384 1241 q 498 1297 435 1297 q 595 1262 562 1297 q 628 1194 628 1227 q 618 1137 628 1160 q 590 1095 609 1114 m 913 1095 q 903 1086 913 1095 q 867 1065 894 1077 q 793 1054 840 1054 q 720 1090 747 1054 q 692 1162 692 1127 q 699 1219 692 1196 q 723 1259 707 1241 q 821 1297 758 1297 q 918 1262 884 1297 q 951 1194 951 1227 q 941 1137 951 1160 q 913 1095 932 1114 z "},"÷":{"ha":475,"x_min":57,"x_max":529,"o":"m 369 290 q 357 227 362 255 q 347 170 353 198 q 328 49 339 117 q 203 46 274 46 l 130 46 q 155 190 146 130 q 171 289 164 250 q 273 292 233 292 l 331 292 q 369 290 350 292 m 225 590 q 260 808 243 712 q 374 810 324 808 q 463 814 423 812 q 419 595 446 758 q 225 590 330 590 m 228 354 l 118 353 q 57 351 87 351 l 98 538 q 247 534 216 534 q 360 534 309 534 q 449 536 411 534 q 529 538 487 537 l 494 350 l 228 354 z "},"ø":{"ha":685,"x_min":-1,"x_max":865,"o":"m 568 1039 q 722 967 667 1039 l 770 1031 l 842 978 l 865 1005 l 764 875 q 777 726 777 815 q 753 537 777 637 q 689 353 730 437 q 595 202 648 269 q 483 90 541 136 q 251 -5 362 -5 q 114 49 168 -5 l 68 -11 l -1 56 l 65 133 q 43 276 43 195 q 62 443 43 357 q 115 614 81 529 q 197 775 149 699 q 304 911 245 852 q 568 1039 430 1039 m 273 251 q 345 233 308 233 q 418 254 382 233 q 483 309 453 275 q 536 385 513 342 q 575 472 559 429 q 610 635 610 563 q 606 673 610 656 l 273 251 m 574 741 q 493 800 538 800 q 404 759 448 800 q 323 654 359 718 q 263 517 286 591 q 240 377 240 442 q 243 342 240 358 l 574 741 z "},"ù":{"ha":582,"x_min":111,"x_max":788,"o":"m 252 987 q 322 994 282 990 q 401 1002 362 998 q 481 1009 439 1005 q 426 745 446 842 q 393 589 406 647 q 372 481 381 530 q 343 347 350 378 q 323 227 323 254 q 334 185 323 199 q 366 171 346 171 q 401 190 385 171 q 427 235 416 209 q 442 288 437 260 q 454 342 448 315 q 470 420 460 370 q 490 523 480 469 q 511 632 500 576 q 578 993 540 774 l 788 1006 l 781 971 q 745 774 765 886 q 709 581 726 662 q 647 280 667 369 q 591 136 627 191 q 507 43 555 80 q 297 -24 416 -24 q 171 16 224 -24 q 111 145 111 65 q 111 156 111 151 q 115 193 111 161 q 130 304 118 224 q 157 473 142 385 q 187 648 171 560 q 217 808 203 736 q 252 987 247 963 m 704 1066 q 351 1156 469 1120 q 370 1254 359 1196 q 393 1371 381 1312 q 416 1496 404 1430 q 521 1386 471 1438 q 713 1179 625 1278 l 704 1066 z "},"ú":{"ha":582,"x_min":111,"x_max":804,"o":"m 252 987 q 322 994 282 990 q 401 1002 362 998 q 481 1009 439 1005 q 426 745 446 842 q 393 589 406 647 q 372 481 381 530 q 343 347 350 378 q 323 227 323 254 q 334 185 323 199 q 366 171 346 171 q 401 190 385 171 q 427 235 416 209 q 442 288 437 260 q 454 342 448 315 q 470 420 460 370 q 490 523 480 469 q 511 632 500 576 q 578 993 540 774 l 788 1006 l 781 971 q 745 774 765 886 q 709 581 726 662 q 647 280 667 369 q 591 136 627 191 q 507 43 555 80 q 297 -24 416 -24 q 171 16 224 -24 q 111 145 111 65 q 111 156 111 151 q 115 193 111 161 q 130 304 118 224 q 157 473 142 385 q 187 648 171 560 q 217 808 203 736 q 252 987 247 963 m 450 1119 l 452 1213 q 629 1383 547 1308 q 785 1537 712 1458 q 793 1364 792 1444 q 804 1198 793 1283 q 628 1131 723 1165 q 452 1066 533 1097 q 450 1095 450 1081 l 450 1119 z "},"û":{"ha":582,"x_min":111,"x_max":788,"o":"m 252 987 q 322 994 282 990 q 401 1002 362 998 q 481 1009 439 1005 q 426 745 446 842 q 393 589 406 647 q 372 481 381 530 q 343 347 350 378 q 323 227 323 254 q 334 185 323 199 q 366 171 346 171 q 401 190 385 171 q 427 235 416 209 q 442 288 437 260 q 454 342 448 315 q 470 420 460 370 q 490 523 480 469 q 511 632 500 576 q 578 993 540 774 l 788 1006 l 781 971 q 745 774 765 886 q 709 581 726 662 q 647 280 667 369 q 591 136 627 191 q 507 43 555 80 q 297 -24 416 -24 q 171 16 224 -24 q 111 145 111 65 q 111 156 111 151 q 115 193 111 161 q 130 304 118 224 q 157 473 142 385 q 187 648 171 560 q 217 808 203 736 q 252 987 247 963 m 366 1134 q 600 1427 507 1337 q 675 1420 654 1419 q 700 1419 697 1421 q 739 1280 713 1371 q 780 1138 765 1190 q 680 1059 715 1084 l 595 1223 q 522 1147 549 1177 q 441 1058 465 1082 q 366 1134 392 1099 z "},"ü":{"ha":582,"x_min":111,"x_max":860,"o":"m 252 987 q 322 994 282 990 q 401 1002 362 998 q 481 1009 439 1005 q 426 745 446 842 q 393 589 406 647 q 372 481 381 530 q 343 347 350 378 q 323 227 323 254 q 334 185 323 199 q 366 171 346 171 q 401 190 385 171 q 427 235 416 209 q 442 288 437 260 q 454 342 448 315 q 470 420 460 370 q 490 523 480 469 q 511 632 500 576 q 578 993 540 774 l 788 1006 l 781 971 q 745 774 765 886 q 709 581 726 662 q 647 280 667 369 q 591 136 627 191 q 507 43 555 80 q 297 -24 416 -24 q 171 16 224 -24 q 111 145 111 65 q 111 156 111 151 q 115 193 111 161 q 130 304 118 224 q 157 473 142 385 q 187 648 171 560 q 217 808 203 736 q 252 987 247 963 m 499 1097 q 490 1087 499 1097 q 452 1067 480 1078 q 379 1055 425 1055 q 306 1092 334 1055 q 278 1163 278 1128 q 286 1220 278 1198 q 309 1260 293 1242 q 408 1298 345 1298 q 504 1263 471 1298 q 537 1195 537 1229 q 528 1138 537 1161 q 499 1097 518 1115 m 822 1097 q 812 1087 822 1097 q 776 1067 803 1078 q 703 1055 749 1055 q 629 1092 656 1055 q 601 1163 601 1128 q 608 1220 601 1198 q 632 1260 616 1242 q 730 1298 667 1298 q 827 1263 793 1298 q 860 1195 860 1229 q 850 1138 860 1161 q 822 1097 841 1115 z "},"ý":{"ha":533,"x_min":175,"x_max":793,"o":"m 431 594 q 578 1006 476 705 l 793 959 q 659 684 719 807 l 572 505 q 522 399 547 450 q 476 302 496 347 q 412 50 456 199 l 175 20 l 239 300 q 225 671 239 468 q 209 906 212 875 l 206 936 l 433 1023 l 433 781 l 431 646 l 431 594 m 385 1118 l 387 1211 q 564 1381 481 1306 q 720 1535 647 1457 q 728 1362 727 1443 q 739 1196 728 1282 q 563 1130 658 1164 q 387 1065 468 1096 q 385 1093 385 1080 l 385 1118 z "},"þ":{"ha":536,"x_min":1,"x_max":633,"o":"m 1 -1 q 197 1015 142 659 q 300 1026 255 1021 q 382 1035 346 1031 q 427 1039 419 1039 l 399 901 q 581 821 519 901 q 633 632 633 750 q 526 358 633 479 q 417 270 479 302 q 290 237 355 237 l 275 237 q 241 46 245 107 l 1 -1 m 368 732 q 304 384 332 536 q 395 463 353 396 q 441 628 441 536 q 418 706 441 680 q 368 732 395 732 z "},"ÿ":{"ha":533,"x_min":175,"x_max":811,"o":"m 431 594 q 578 1006 476 705 l 793 959 q 659 684 719 807 l 572 505 q 522 399 547 450 q 476 302 496 347 q 412 50 456 199 l 175 20 l 239 300 q 225 671 239 468 q 209 906 212 875 l 206 936 l 433 1023 l 433 781 l 431 646 l 431 594 m 450 1095 q 441 1086 450 1095 q 404 1065 431 1077 q 330 1054 376 1054 q 257 1090 285 1054 q 229 1162 229 1127 q 237 1219 229 1196 q 260 1259 244 1241 q 359 1297 296 1297 q 455 1262 422 1297 q 488 1194 488 1227 q 479 1137 488 1160 q 450 1095 469 1114 m 773 1095 q 764 1086 773 1095 q 727 1065 754 1077 q 654 1054 700 1054 q 580 1090 608 1054 q 552 1162 552 1127 q 559 1219 552 1196 q 583 1259 567 1241 q 682 1297 618 1297 q 778 1262 745 1297 q 811 1194 811 1227 q 802 1137 811 1160 q 773 1095 792 1114 z "},"ı":{"ha":281,"x_min":7,"x_max":396,"o":"m 396 1006 q 236 27 312 528 q 103 15 197 27 q 7 1 9 3 q 107 519 64 252 q 179 972 151 785 l 396 1006 z "},"Ł":{"ha":429,"x_min":24,"x_max":511,"o":"m 271 195 q 415 199 323 199 q 423 113 418 146 q 431 64 429 80 q 434 43 433 49 l 392 45 q 109 19 250 45 q 24 -3 62 9 q 99 463 49 193 q 76 454 87 457 q 57 447 65 450 q 42 441 49 444 l 57 613 q 132 636 92 623 q 158 775 146 711 q 180 891 170 840 q 202 990 191 943 l 446 1023 q 425 938 437 982 q 401 839 414 894 q 374 720 389 784 q 421 737 397 728 q 466 753 445 746 q 507 770 487 761 l 511 604 l 336 545 q 271 195 286 305 z "},"ł":{"ha":429,"x_min":24,"x_max":511,"o":"m 271 195 q 415 199 323 199 q 423 113 418 146 q 431 64 429 80 q 434 43 433 49 l 392 45 q 109 19 250 45 q 24 -3 62 9 q 99 463 49 193 q 76 454 87 457 q 57 447 65 450 q 42 441 49 444 l 57 613 q 132 636 92 623 q 158 775 146 711 q 180 891 170 840 q 202 990 191 943 l 446 1023 q 425 938 437 982 q 401 839 414 894 q 374 720 389 784 q 421 737 397 728 q 466 753 445 746 q 507 770 487 761 l 511 604 l 336 545 q 271 195 286 305 z "},"Œ":{"ha":779,"x_min":49,"x_max":937,"o":"m 787 458 q 656 464 743 458 l 609 208 l 779 229 l 765 71 l 358 14 l 345 14 q 117 104 195 14 q 49 326 49 184 q 117 618 49 467 q 410 960 222 861 q 540 1000 472 994 l 937 1027 q 897 859 913 948 l 880 859 q 724 865 880 859 l 675 616 q 722 614 700 614 q 768 613 745 613 l 833 613 q 811 460 814 476 l 787 458 m 495 758 q 406 712 450 751 q 326 616 362 673 q 269 495 290 560 q 247 373 247 430 q 277 277 247 316 q 374 237 307 237 l 387 237 q 399 239 392 237 l 495 758 z "},"œ":{"ha":779,"x_min":49,"x_max":937,"o":"m 787 458 q 656 464 743 458 l 609 208 l 779 229 l 765 71 l 358 14 l 345 14 q 117 104 195 14 q 49 326 49 184 q 117 618 49 467 q 410 960 222 861 q 540 1000 472 994 l 937 1027 q 897 859 913 948 l 880 859 q 724 865 880 859 l 675 616 q 722 614 700 614 q 768 613 745 613 l 833 613 q 811 460 814 476 l 787 458 m 495 758 q 406 712 450 751 q 326 616 362 673 q 269 495 290 560 q 247 373 247 430 q 277 277 247 316 q 374 237 307 237 l 387 237 q 399 239 392 237 l 495 758 z "},"Š":{"ha":597,"x_min":87,"x_max":845,"o":"m 575 709 q 582 766 582 736 q 567 814 582 796 q 535 833 552 833 q 502 825 518 833 q 469 803 486 817 q 431 736 431 772 q 450 677 431 700 q 497 636 469 655 q 557 597 525 617 q 618 545 590 576 q 684 343 684 469 q 572 92 684 191 q 305 -3 467 -3 q 87 122 186 -3 l 190 324 q 263 255 209 286 q 345 222 317 222 q 390 228 372 222 q 423 244 408 233 q 457 303 457 269 q 435 366 457 338 q 382 420 414 395 q 313 473 350 446 q 244 529 275 499 q 168 671 168 597 q 211 808 168 746 q 318 916 254 871 q 459 988 382 962 q 589 1015 536 1015 q 675 1005 642 1015 q 732 977 708 996 q 785 849 785 933 q 782 810 785 829 q 776 768 779 791 l 575 709 m 526 1054 l 431 1331 q 462 1358 446 1344 q 494 1386 477 1371 q 528 1415 510 1401 l 620 1255 l 766 1428 q 823 1378 811 1390 l 845 1356 q 627 1051 726 1162 q 567 1054 589 1054 l 532 1053 q 526 1054 526 1053 z "},"š":{"ha":597,"x_min":87,"x_max":845,"o":"m 575 709 q 582 766 582 736 q 567 814 582 796 q 535 833 552 833 q 502 825 518 833 q 469 803 486 817 q 431 736 431 772 q 450 677 431 700 q 497 636 469 655 q 557 597 525 617 q 618 545 590 576 q 684 343 684 469 q 572 92 684 191 q 305 -3 467 -3 q 87 122 186 -3 l 190 324 q 263 255 209 286 q 345 222 317 222 q 390 228 372 222 q 423 244 408 233 q 457 303 457 269 q 435 366 457 338 q 382 420 414 395 q 313 473 350 446 q 244 529 275 499 q 168 671 168 597 q 211 808 168 746 q 318 916 254 871 q 459 988 382 962 q 589 1015 536 1015 q 675 1005 642 1015 q 732 977 708 996 q 785 849 785 933 q 782 810 785 829 q 776 768 779 791 l 575 709 m 526 1054 l 431 1331 q 462 1358 446 1344 q 494 1386 477 1371 q 528 1415 510 1401 l 620 1255 l 766 1428 q 823 1378 811 1390 l 845 1356 q 627 1051 726 1162 q 567 1054 589 1054 l 532 1053 q 526 1054 526 1053 z "},"Ÿ":{"ha":533,"x_min":175,"x_max":799,"o":"m 431 594 q 578 1006 476 705 l 793 959 q 659 684 719 807 l 572 505 q 522 399 547 450 q 476 302 496 347 q 412 50 456 199 l 175 20 l 239 300 q 225 671 239 468 q 209 906 212 875 l 206 936 l 433 1023 l 433 781 l 431 646 l 431 594 m 438 1095 q 429 1086 438 1095 q 391 1065 419 1077 q 318 1054 363 1054 q 245 1090 273 1054 q 217 1162 217 1127 q 224 1219 217 1196 q 248 1259 232 1241 q 347 1297 283 1297 q 443 1262 410 1297 q 476 1194 476 1227 q 467 1137 476 1160 q 438 1095 457 1114 m 761 1095 q 751 1086 761 1095 q 715 1065 742 1077 q 642 1054 688 1054 q 568 1090 595 1054 q 540 1162 540 1127 q 547 1219 540 1196 q 571 1259 555 1241 q 669 1297 606 1297 q 766 1262 732 1297 q 799 1194 799 1227 q 789 1137 799 1160 q 761 1095 780 1114 z "},"Ž":{"ha":598,"x_min":79,"x_max":812,"o":"m 392 251 q 670 267 437 251 l 666 56 q 380 43 545 56 q 79 12 152 24 l 80 216 l 475 753 q 245 727 400 753 l 213 723 l 239 941 l 807 982 l 770 791 l 392 251 m 494 998 l 399 1275 q 429 1302 414 1289 q 461 1331 445 1316 q 495 1359 477 1345 l 587 1199 l 734 1373 q 791 1322 779 1335 l 812 1301 q 594 996 693 1107 q 534 998 556 998 l 499 997 q 494 998 494 997 z "},"ž":{"ha":598,"x_min":79,"x_max":812,"o":"m 392 251 q 670 267 437 251 l 666 56 q 380 43 545 56 q 79 12 152 24 l 80 216 l 475 753 q 245 727 400 753 l 213 723 l 239 941 l 807 982 l 770 791 l 392 251 m 494 998 l 399 1275 q 429 1302 414 1289 q 461 1331 445 1316 q 495 1359 477 1345 l 587 1199 l 734 1373 q 791 1322 779 1335 l 812 1301 q 594 996 693 1107 q 534 998 556 998 l 499 997 q 494 998 494 997 z "},"ˆ":{"ha":506,"x_min":121,"x_max":534,"o":"m 121 85 q 354 378 262 289 q 430 372 408 370 q 454 370 452 373 q 494 232 468 323 q 534 90 519 141 q 434 11 469 35 l 350 175 q 277 99 304 129 q 195 9 220 34 q 121 85 146 50 z "},"ˇ":{"ha":506,"x_min":182,"x_max":595,"o":"m 277 7 l 182 283 q 212 311 197 297 q 244 339 228 324 q 278 368 260 354 l 370 208 l 517 381 q 574 331 562 343 l 595 309 q 377 4 476 115 q 317 7 339 7 l 282 5 q 277 7 277 5 z "},"˚":{"ha":399,"x_min":138,"x_max":456,"o":"m 222 152 q 222 137 222 152 q 241 98 222 122 q 300 73 260 73 q 362 100 339 73 q 385 157 385 127 q 365 210 385 187 q 304 232 345 232 q 243 207 263 232 q 222 152 222 182 m 285 0 q 219 13 245 0 q 174 47 193 26 q 138 153 138 90 q 228 300 138 259 q 299 313 259 313 q 368 301 339 313 q 418 269 397 289 q 456 168 456 231 q 410 54 456 102 q 285 0 359 0 z "},"˜":{"ha":506,"x_min":12,"x_max":625,"o":"m 551 316 q 625 255 613 269 q 435 24 544 71 q 380 15 411 15 q 332 30 350 15 q 301 62 315 45 q 273 95 288 80 q 233 110 258 110 q 189 98 209 110 q 152 69 170 85 q 118 35 134 53 q 87 4 102 16 q 56 27 69 16 q 32 47 43 38 q 12 65 20 56 l 22 84 q 187 293 95 237 q 252 311 217 311 q 312 292 286 311 q 357 250 338 273 q 388 210 376 228 q 407 191 400 191 q 519 282 449 191 q 551 316 536 304 z "},"˝":{"ha":667,"x_min":133,"x_max":677,"o":"m 142 18 q 133 155 133 50 l 133 210 q 134 235 133 224 l 654 279 l 677 54 q 495 43 567 47 q 378 37 423 39 q 290 30 334 34 q 142 18 221 24 z "},"–":{"ha":500,"x_min":125,"x_max":623,"o":"m 575 331 q 336 336 380 336 q 210 334 259 336 q 125 332 161 332 l 191 578 q 381 572 343 572 q 623 579 514 572 l 575 331 z "},"—":{"ha":724,"x_min":60,"x_max":779,"o":"m 363 572 l 579 575 q 779 579 671 576 l 731 331 q 629 332 693 331 q 491 334 564 334 q 342 336 418 335 q 204 337 266 336 q 102 338 142 338 q 60 339 62 339 l 113 572 q 156 575 118 575 l 321 572 l 363 572 z "},"‘":{"ha":281,"x_min":109,"x_max":472,"o":"m 216 1081 q 277 1077 240 1077 l 323 1077 q 472 1096 373 1077 l 336 663 l 109 640 q 216 1081 167 868 z "},"’":{"ha":281,"x_min":102,"x_max":473,"o":"m 102 652 q 236 1089 221 1040 l 349 1086 l 473 1089 q 421 933 441 993 q 389 837 401 873 q 332 666 361 751 l 317 665 q 275 663 300 665 q 219 659 250 661 q 163 656 189 658 q 119 654 137 654 l 102 652 z "},"‚":{"ha":271,"x_min":-9,"x_max":354,"o":"m 98 213 q 159 209 122 209 l 205 209 q 354 228 255 209 l 218 -205 l -9 -228 q 98 213 49 0 z "},"“":{"ha":560,"x_min":102,"x_max":696,"o":"m 696 1046 l 608 518 l 495 518 l 388 515 q 402 596 395 557 q 417 675 410 635 q 434 763 425 715 q 453 865 444 811 q 480 1046 473 1000 l 696 1046 m 411 1048 l 311 515 l 102 503 l 148 765 l 194 1048 l 411 1048 z "},"”":{"ha":556,"x_min":111,"x_max":707,"o":"m 391 547 l 498 1076 l 707 1088 l 606 547 l 391 547 m 111 545 l 194 1076 l 418 1076 l 320 567 l 111 545 z "},"„":{"ha":566,"x_min":-50,"x_max":642,"o":"m 317 144 q 145 -307 236 -45 l -50 -332 q -9 -178 -26 -240 q 19 -77 8 -117 q 39 3 30 -37 q 75 140 60 75 q 99 138 87 138 l 121 138 q 218 141 172 138 q 317 144 263 144 m 642 151 q 457 -305 579 -19 l 245 -319 q 406 129 365 -5 q 547 139 487 132 q 642 151 606 146 z "},"†":{"ha":433,"x_min":123,"x_max":552,"o":"m 163 845 q 186 846 172 845 q 222 848 201 848 q 275 852 244 849 q 289 922 282 892 q 308 1008 304 987 l 463 1027 q 426 857 442 948 q 486 859 454 859 l 552 859 q 546 827 549 841 q 539 798 543 812 q 532 769 536 784 q 523 739 528 754 q 514 713 518 724 q 507 692 510 701 l 392 688 q 366 553 380 621 q 340 420 353 486 q 298 187 312 269 q 215 176 256 187 q 130 164 174 164 q 201 472 172 326 q 243 686 229 618 l 123 686 l 163 845 z "},"‡":{"ha":446,"x_min":53,"x_max":562,"o":"m 481 486 l 442 327 q 418 326 433 327 q 330 320 388 323 q 307 208 313 239 q 297 164 300 178 l 142 145 q 163 233 155 191 q 179 315 171 274 q 119 313 151 313 l 53 313 q 59 345 56 331 q 66 374 62 359 q 73 403 69 388 q 81 433 77 418 q 98 480 88 458 l 213 484 q 219 515 214 492 q 231 577 224 537 q 252 686 239 617 l 133 686 l 172 845 q 196 846 182 845 q 232 848 210 848 q 285 852 254 849 q 298 922 292 892 q 317 1008 313 987 l 472 1027 q 435 857 452 948 q 495 859 464 859 l 562 859 q 555 827 559 841 q 549 798 552 812 q 541 769 545 784 q 532 739 537 754 q 524 713 528 724 q 517 692 519 701 l 401 688 q 362 486 365 505 l 481 486 z "},"•":{"ha":395,"x_min":58,"x_max":467,"o":"m 399 368 q 184 264 320 264 q 90 305 122 264 q 58 397 58 346 q 74 509 58 449 q 123 621 90 570 q 340 743 203 743 q 442 684 408 743 q 467 579 467 639 q 399 368 467 454 z "},"‰":{"ha":1109,"x_min":182,"x_max":1207,"o":"m 857 568 q 1054 669 952 669 q 1171 605 1128 669 q 1207 465 1207 548 q 1186 306 1207 381 q 1125 169 1165 231 q 1027 67 1085 107 q 909 27 970 27 q 815 43 849 27 q 760 84 781 58 q 718 224 718 136 q 770 438 718 330 l 450 -41 l 220 14 q 391 251 259 57 q 583 534 522 445 q 701 708 643 623 q 806 864 758 793 q 924 1050 890 993 q 1010 1031 970 1039 q 1152 1005 1122 1009 q 857 568 1047 853 m 589 564 q 569 533 589 564 q 492 462 549 502 q 374 422 434 422 q 279 437 313 422 q 224 480 245 453 q 182 610 182 530 q 208 768 182 689 q 281 912 235 846 q 388 1021 327 978 q 518 1063 449 1063 q 633 998 591 1063 q 670 859 670 943 q 649 701 670 776 q 589 564 628 625 m 884 262 q 935 197 884 197 q 1034 254 991 197 q 1072 350 1072 304 q 1006 444 1072 444 q 921 380 959 444 q 884 262 884 319 m 349 656 q 399 591 349 591 q 499 648 456 591 q 536 745 536 699 q 471 838 536 838 q 385 774 423 838 q 349 656 349 713 z "},"‹":{"ha":368,"x_min":43,"x_max":503,"o":"m 176 515 l 381 331 q 351 186 365 258 q 319 41 336 114 q 180 178 250 111 q 43 319 110 244 q 102 693 64 425 q 307 850 205 770 q 503 1023 408 929 q 426 697 473 917 q 301 605 365 648 q 176 515 237 562 z "},"›":{"ha":377,"x_min":5,"x_max":475,"o":"m 178 1001 l 475 707 q 410 319 448 567 q 204 167 308 241 q 5 1 100 92 q 72 334 38 123 q 203 425 137 381 q 335 515 270 469 l 145 685 q 161 843 152 765 q 178 1001 170 921 z "},"⁄":{"ha":648,"x_min":-81,"x_max":850,"o":"m 623 1021 q 850 977 655 1000 q 149 -69 614 627 l -81 -15 q 505 836 214 388 q 623 1021 570 935 z "},"⁴":{"ha":613,"x_min":65,"x_max":694,"o":"m 65 540 l 281 1036 q 499 1047 406 1036 q 321 654 419 897 q 315 629 319 639 l 412 629 q 418 652 414 636 q 427 691 422 669 q 439 739 433 713 q 456 808 445 765 q 484 925 467 852 q 610 938 556 933 q 692 945 663 943 q 678 885 689 930 q 655 788 667 840 q 632 691 643 736 q 618 629 621 646 l 694 629 l 639 463 l 570 463 l 557 326 l 332 292 l 359 460 l 126 445 l 65 540 z "},"€":{"ha":658,"x_min":60,"x_max":758,"o":"m 60 327 q 96 467 91 433 l 144 467 l 157 521 l 113 521 q 95 522 103 521 q 109 569 102 547 q 121 615 115 591 q 133 659 126 639 l 205 655 q 373 913 274 814 q 598 1021 481 1021 q 743 849 707 1021 q 758 738 755 798 l 597 674 q 544 753 585 753 q 414 654 479 753 l 499 654 q 483 581 491 621 q 471 522 475 540 q 444 521 456 521 l 353 521 q 344 493 347 506 q 336 467 340 480 l 396 467 q 456 465 426 467 q 434 331 442 400 l 320 330 q 397 220 326 220 q 502 292 454 220 l 621 183 q 365 1 513 1 q 182 90 244 1 q 126 304 126 170 l 126 327 l 60 327 z "},"™":{"ha":1302,"x_min":157,"x_max":1443,"o":"m 491 332 q 751 987 681 770 q 899 993 830 987 q 1047 1004 968 998 q 982 704 1031 917 l 994 704 q 1087 880 1035 789 q 1162 1005 1139 971 q 1302 1025 1232 1016 q 1443 1048 1373 1034 q 1331 627 1373 897 q 1299 376 1310 503 l 1053 349 q 1126 665 1053 359 l 1114 665 l 975 351 q 885 349 930 350 q 796 346 840 349 l 842 665 l 831 665 q 804 586 825 639 q 770 496 784 533 q 745 429 757 460 q 713 355 716 358 l 491 332 m 174 892 q 180 1012 174 897 q 315 1008 247 1008 q 662 1023 477 1008 l 650 974 q 638 930 644 954 q 627 891 632 907 q 568 882 598 884 q 510 876 538 880 q 392 363 461 722 l 157 338 q 297 884 260 693 q 235 886 266 887 q 174 892 205 886 z "},"∏":{"ha":675,"x_min":42,"x_max":789,"o":"m 42 -3 q 218 1015 187 711 q 241 1013 229 1013 l 271 1013 q 492 1017 384 1013 q 669 1023 600 1021 q 789 1028 738 1025 q 659 419 723 811 q 602 58 628 243 l 385 34 q 475 507 449 377 q 513 703 500 637 q 534 819 525 769 q 548 895 544 869 l 420 890 q 407 812 416 863 q 385 697 397 762 q 358 559 373 632 q 319 363 343 486 q 256 42 296 241 l 42 -3 z "},"−":{"ha":389,"x_min":33,"x_max":385,"o":"m 33 171 l 75 385 q 259 385 182 385 q 385 382 336 385 l 373 174 l 332 175 l 43 171 l 33 171 z "},"∕":{"ha":648,"x_min":-14,"x_max":918,"o":"m 690 1021 q 918 977 723 1000 q 217 -69 682 627 l -14 -15 q 572 836 282 388 q 690 1021 637 935 z "},"√":{"ha":178,"x_min":0,"x_max":0,"o":""},"≠":{"ha":419,"x_min":80,"x_max":529,"o":"m 156 355 q 174 570 168 452 q 307 564 244 564 q 529 578 423 564 q 472 355 492 463 l 323 354 q 239 355 281 354 q 156 355 198 355 m 80 4 q 138 224 117 107 q 322 224 244 224 q 449 221 400 224 l 437 12 q 302 16 365 16 q 80 4 175 16 z "},"":{"ha":0,"x_min":0,"x_max":0,"o":""},"":{"ha":0,"x_min":0,"x_max":0,"o":""},"":{"ha":0,"x_min":0,"x_max":0,"o":""}}}
